<svg width="602" height="602" viewBox="0 0 602 602" fill="none" xmlns="http://www.w3.org/2000/svg">
<path d="M588.625 296.393C582.389 231.739 549.916 167.234 521.904 131.612C403.177 -19.3724 164.882 -19.0774 51.3818 170.556C19.3674 224.045 -0.721341 342.962 23.054 430.918C53.4803 543.483 173.381 587.326 306.713 586.289C431.29 585.321 529.243 531.158 565.92 456.333C588.87 409.512 594.861 361.048 588.625 296.393Z" fill="#37474F"/>
<path d="M51.3818 170.556C19.3674 224.045 -0.721341 342.962 23.054 430.918C28.3926 450.669 36.4955 468.296 46.933 483.944L46.9342 483.945L179.314 407.527L292.129 342.403L557.158 189.411C557.158 189.411 557.157 189.408 557.157 189.406C546.122 166.491 533.626 146.518 521.905 131.613C403.177 -19.3724 164.882 -19.0774 51.3818 170.556Z" fill="#263238"/>
<path opacity="0.2" d="M367.871 392.83L367.87 377.967L346.417 365.585V350.722L324.964 338.34V323.476L303.511 311.094L210.833 361.664L234.862 375.498L234.867 390.357L256.315 402.743L256.319 417.603L277.767 429.988V444.852L371.758 580.682C464.85 564.952 535.904 517.565 565.917 456.333C569.387 449.255 572.462 442.137 575.174 434.933L367.871 392.83Z" fill="#CB54E9"/>
<path opacity="0.15" d="M235.72 103.186C172.992 139.287 122.135 236.1 122.135 319.443C122.135 368.969 140.095 402.594 167.833 414.153L179.313 407.526L292.128 342.402L303.889 335.613C331.468 292.211 349.305 238.12 349.305 188.758C349.307 105.415 298.465 67.1013 235.72 103.186Z" fill="#CB54E9"/>
<path opacity="0.15" d="M235.72 127.286C183.009 157.622 140.272 238.975 140.272 309.009C140.272 379.043 183.009 411.238 235.72 380.915C288.446 350.593 331.167 269.226 331.167 199.192C331.167 129.158 288.446 96.963 235.72 127.286Z" fill="#CB54E9"/>
<path opacity="0.15" d="M235.72 144.271C190.232 170.544 153.352 241.001 153.352 301.655C153.352 362.31 190.233 390.192 235.72 363.931C281.22 337.669 318.088 267.2 318.088 206.546C318.088 145.891 281.22 118.009 235.72 144.271Z" fill="#CB54E9"/>
<path d="M187.153 304.531C187.153 251.983 219.105 190.941 258.514 168.178C275.879 158.154 291.787 157.235 304.155 163.827C300.269 161.577 290.709 156.053 288.131 154.564C275.604 147.287 259.253 147.94 241.361 158.271C201.941 181.033 169.989 242.075 169.989 294.624C169.989 323.386 179.569 343.634 194.695 352.348C197.283 353.838 206.906 359.404 210.834 361.665C196.289 352.623 187.153 332.638 187.153 304.531Z" fill="#CB54E9"/>
<path opacity="0.3" d="M187.153 304.531C187.153 251.983 219.105 190.941 258.514 168.178C275.879 158.154 291.787 157.235 304.155 163.827C300.269 161.577 290.709 156.053 288.131 154.564C275.604 147.287 259.253 147.94 241.361 158.271C201.941 181.033 169.989 242.075 169.989 294.624C169.989 323.386 179.569 343.634 194.695 352.348C197.283 353.838 206.906 359.404 210.834 361.665C196.289 352.623 187.153 332.638 187.153 304.531Z" fill="white"/>
<path d="M286.516 179.195C292.737 187.498 296.074 200.721 295.335 217.907C293.54 260.083 267.904 310.182 238.086 329.797C229.033 335.755 220.626 338.216 213.369 337.572C222.432 349.644 237.6 351.324 255.25 339.705C285.069 320.091 310.704 269.992 312.499 227.815C313.756 198.461 303.141 180.673 286.516 179.195Z" fill="#CB54E9"/>
<path opacity="0.15" d="M286.516 179.195C292.737 187.498 296.074 200.721 295.335 217.907C293.54 260.083 267.904 310.182 238.086 329.797C229.033 335.755 220.626 338.216 213.369 337.572C222.432 349.644 237.6 351.324 255.25 339.705C285.069 320.091 310.704 269.992 312.499 227.815C313.756 198.461 303.141 180.673 286.516 179.195Z" fill="black"/>
<path d="M205.326 192.102L222.487 202.01C222.942 201.391 223.398 200.773 223.861 200.164L206.7 190.256C206.238 190.865 205.781 191.483 205.326 192.102Z" fill="#CB54E9"/>
<path d="M197.398 249.477L180.235 239.568C179.993 240.24 179.77 240.917 179.537 241.591L196.7 251.5C196.933 250.826 197.157 250.149 197.398 249.477Z" fill="#CB54E9"/>
<path d="M275.71 150.186L292.883 160.101C293.585 160.21 294.28 160.335 294.968 160.485L277.799 150.572C277.11 150.423 276.413 150.297 275.71 150.186Z" fill="#CB54E9"/>
<path d="M189.565 278.58C189.699 277.829 189.846 277.078 189.992 276.326L172.828 266.416C172.682 267.168 172.535 267.919 172.4 268.67L189.565 278.58Z" fill="#CB54E9"/>
<path d="M222.197 172.832L239.356 182.738C239.949 182.177 240.539 181.614 241.137 181.068L223.979 171.162C223.379 171.707 222.789 172.271 222.197 172.832Z" fill="#CB54E9"/>
<path d="M189.649 328.118C189.495 327.452 189.347 326.78 189.206 326.099L189.073 325.801L172 315.943C172.155 316.709 172.319 317.465 172.492 318.211L189.649 328.118Z" fill="#CB54E9"/>
<path d="M260.755 150.632C260.024 150.779 259.282 150.966 258.542 151.149L275.701 161.055C276.448 160.871 277.192 160.695 277.929 160.547L260.755 150.632Z" fill="#CB54E9"/>
<path d="M259.581 167.593L242.424 157.688C242.069 157.887 241.716 158.064 241.36 158.269C241.012 158.47 240.67 158.697 240.323 158.903L257.48 168.808C257.826 168.602 258.167 168.377 258.513 168.176C258.872 167.971 259.225 167.792 259.581 167.593Z" fill="#CB54E9"/>
<path d="M190.781 215.494L207.944 225.403C208.275 224.769 208.619 224.146 208.956 223.518L191.793 213.609C191.456 214.239 191.112 214.861 190.781 215.494Z" fill="#CB54E9"/>
<path d="M196.942 347.011C196.558 346.361 196.187 345.69 195.822 345.01L178.673 335.109C179.041 335.794 179.419 336.464 179.806 337.119L196.942 347.011Z" fill="#CB54E9"/>
<path d="M169.99 294.816L187.154 304.726C187.154 304.66 187.152 304.596 187.152 304.531C187.152 303.788 187.181 303.04 187.194 302.294L170.03 292.384C170.017 293.131 169.988 293.881 169.988 294.624C169.988 294.689 169.99 294.751 169.99 294.816Z" fill="#CB54E9"/>
<path d="M258.514 168.176C219.105 190.939 187.153 251.98 187.153 304.529C187.153 357.078 219.105 381.235 258.514 358.483C297.933 335.731 329.875 274.678 329.875 222.13C329.875 169.581 297.933 145.424 258.514 168.176ZM312.499 227.812C310.704 269.989 285.068 320.087 255.25 339.703C225.442 359.317 202.733 341.023 204.528 298.846C206.334 256.67 231.969 206.57 261.777 186.956C291.595 167.342 314.305 185.636 312.499 227.812Z" fill="#CB54E9"/>
<g opacity="0.15">
<path d="M243.905 202.82C244.479 202.173 245.053 201.523 245.635 200.896L241.126 181.064C240.526 181.61 239.931 182.163 239.338 182.726L243.905 202.82Z" fill="black"/>
<path d="M257.458 168.797L257.457 190.057C258.159 189.519 258.862 188.992 259.57 188.487L259.566 167.58C259.215 167.776 258.867 167.974 258.514 168.177C258.159 168.383 257.811 168.587 257.458 168.797Z" fill="black"/>
<path d="M271.973 181.605C272.744 181.304 273.509 181.035 274.266 180.789L277.913 160.539C277.173 160.688 276.425 160.852 275.675 161.039L271.973 181.605Z" fill="black"/>
<path d="M213.799 254.784C214.043 254.113 214.295 253.444 214.548 252.776L197.397 249.474C197.156 250.144 196.917 250.819 196.685 251.492L213.799 254.784Z" fill="black"/>
<path d="M221.899 235.958C222.219 235.317 222.537 234.674 222.865 234.038L208.94 223.512C208.603 224.14 208.271 224.77 207.94 225.403L221.899 235.958Z" fill="black"/>
<path d="M326.972 196.885L311.783 211.082C311.902 211.932 312.015 212.788 312.109 213.668L327.537 199.249C327.359 198.449 327.17 197.663 326.972 196.885Z" fill="black"/>
<path d="M205.037 291.968L187.171 302.281C187.158 303.035 187.152 303.78 187.152 304.53C187.152 304.598 187.153 304.664 187.153 304.731L204.795 294.545C204.865 293.689 204.951 292.828 205.037 291.968Z" fill="black"/>
<path d="M207.932 274.526C208.106 273.764 208.301 273.002 208.488 272.241L189.975 276.314C189.829 277.067 189.689 277.821 189.554 278.572L207.932 274.526Z" fill="black"/>
<path d="M286.192 179.184C286.919 179.239 287.634 179.327 288.339 179.444L294.917 160.457C294.224 160.308 293.523 160.175 292.815 160.066L286.192 179.184Z" fill="black"/>
<path d="M307.182 194.977C307.526 195.692 307.853 196.433 308.167 197.194L320.566 180.49C320.185 179.82 319.795 179.165 319.396 178.524L307.182 194.977Z" fill="black"/>
<path d="M298.418 183.791C298.988 184.222 299.542 184.682 300.08 185.17L309.441 167.284C308.876 166.843 308.306 166.414 307.723 166.011L298.418 183.791Z" fill="black"/>
<path d="M231.972 218.456C232.406 217.799 232.835 217.137 233.277 216.49L223.848 200.159C223.386 200.768 222.928 201.382 222.472 202.002L231.972 218.456Z" fill="black"/>
<path d="M273.493 323.437C272.92 324.088 272.344 324.732 271.764 325.363L276.285 345.252C276.885 344.7 277.474 344.121 278.067 343.554L273.493 323.437Z" fill="black"/>
<path d="M295.868 289.229C295.554 289.874 295.234 290.516 294.912 291.155L308.859 301.7C309.192 301.067 309.508 300.424 309.835 299.788L295.868 289.229Z" fill="black"/>
<path d="M285.687 307.266C285.256 307.928 284.82 308.58 284.382 309.232L293.837 325.609C294.296 324.995 294.758 324.385 295.211 323.762L285.687 307.266Z" fill="black"/>
<path d="M303.911 269.973C303.675 270.646 303.441 271.318 303.197 271.988L320.291 275.278C320.525 274.605 320.762 273.934 320.988 273.26L303.911 269.973Z" fill="black"/>
<path d="M309.561 249.996C309.399 250.753 309.243 251.51 309.069 252.267L327.436 248.225C327.571 247.475 327.698 246.726 327.822 245.977L309.561 249.996Z" fill="black"/>
<path d="M329.853 219.905L312.369 229.999C312.317 230.844 312.262 231.689 312.192 232.541L329.871 222.333C329.871 222.266 329.875 222.198 329.875 222.131C329.874 221.383 329.867 220.641 329.853 219.905Z" fill="black"/>
<path d="M259.57 357.84V336.606C258.868 337.144 258.165 337.671 257.457 338.176V359.077C257.809 358.881 258.16 358.69 258.514 358.485C258.868 358.28 259.216 358.05 259.57 357.84Z" fill="black"/>
<path d="M209.267 330.426C208.941 329.685 208.626 328.928 208.332 328.143L195.816 345.003C196.183 345.689 196.561 346.363 196.949 347.021L209.267 330.426Z" fill="black"/>
<path d="M217.851 342.284C217.295 341.828 216.753 341.344 216.228 340.831L206.833 358.782C207.389 359.239 207.957 359.672 208.531 360.092L217.851 342.284Z" fill="black"/>
<path d="M244.657 345.221C243.887 345.513 243.126 345.768 242.369 346.006L238.733 366.197C239.474 366.053 240.218 365.892 240.968 365.711L244.657 345.221Z" fill="black"/>
<path d="M230.145 347.431C229.425 347.355 228.717 347.247 228.02 347.11L221.456 366.057C222.145 366.218 222.843 366.354 223.547 366.477L230.145 347.431Z" fill="black"/>
<path d="M205.004 313.77C204.903 312.903 204.824 312.012 204.751 311.116L189.129 325.717C189.293 326.53 189.464 327.325 189.647 328.117L205.004 313.77Z" fill="black"/>
</g>
<path d="M277.769 444.852L196.218 397.768V353.185L213.381 363.094L234.863 375.498V390.361L256.316 402.743V417.606L277.769 429.988V444.852Z" fill="#263238"/>
<path d="M213.415 363.112L303.512 311.096L324.964 323.478L234.863 375.498L213.415 363.112Z" fill="#455A64"/>
<path d="M234.863 375.498V390.361L324.966 338.34L324.965 323.478L234.863 375.498Z" fill="#37474F"/>
<path d="M234.868 390.357L324.964 338.341L346.417 350.723L256.316 402.743L234.868 390.357Z" fill="#455A64"/>
<path d="M256.316 402.743V417.606L346.418 365.585L346.417 350.723L256.316 402.743Z" fill="#37474F"/>
<path d="M256.321 417.603L346.419 365.586L367.871 377.968L277.769 429.988L256.321 417.603Z" fill="#455A64"/>
<path d="M277.769 429.988V444.852L367.872 392.83V377.968L277.769 429.988Z" fill="#37474F"/>
<path d="M303.574 222.721C301.779 264.897 276.143 314.995 246.325 334.611C235.245 341.899 225.158 343.959 216.929 341.487C208.438 333.797 203.663 319.062 204.529 298.846C206.335 256.67 231.971 206.57 261.778 186.956C272.87 179.657 282.977 177.608 291.207 180.091C299.677 187.79 304.44 202.515 303.574 222.721Z" fill="#CB54E9"/>
<path opacity="0.9" d="M303.574 222.721C301.779 264.897 276.143 314.995 246.325 334.611C235.245 341.899 225.158 343.959 216.929 341.487C208.438 333.797 203.663 319.062 204.529 298.846C206.335 256.67 231.971 206.57 261.778 186.956C272.87 179.657 282.977 177.608 291.207 180.091C299.677 187.79 304.44 202.515 303.574 222.721Z" fill="white"/>
<path opacity="0.1" d="M246.193 313.035C236.964 313.961 228.271 318.623 221.916 325.38C218.47 329.045 215.722 333.307 213.632 337.886C214.659 339.214 215.753 340.425 216.928 341.488C218.66 342.008 220.478 342.315 222.365 342.427C222.848 341.229 223.208 339.963 223.632 338.742C227.582 327.388 238.994 319.055 251.011 318.747C255.133 318.641 259.231 319.391 263.341 319.708C264.964 317.922 266.558 316.061 268.12 314.124C260.885 313.761 253.383 312.313 246.193 313.035ZM244.425 251.388C252.898 252.48 262.05 252.953 269.423 248.636C277.761 243.751 281.72 234.06 285.75 225.277C289.486 217.135 294.61 208.528 302.785 205.368C301.085 193.967 297.019 185.375 291.207 180.092C287.495 178.972 283.399 178.784 279.005 179.574C274.914 184.095 272.01 189.861 270.316 195.764C268.384 202.497 267.709 209.66 264.611 215.943C261.527 222.199 256.062 227.245 249.579 229.822C244.43 231.868 238.824 232.366 233.347 233.202C229.563 233.778 225.741 234.573 222.039 235.682C219.205 241.331 216.643 247.185 214.407 253.151C215.892 252.405 217.421 251.753 219.015 251.26C227.174 248.737 235.951 250.296 244.425 251.388ZM253.039 209.205C255.742 204.545 256.696 199.115 258.131 193.922C258.665 191.995 259.288 190.095 259.963 188.213C258.034 189.57 256.126 191.048 254.24 192.646C251.511 199.251 248.87 205.908 243.84 210.869C241.298 213.375 238.215 215.325 234.873 216.574C234.345 216.772 233.667 216.909 232.921 217.023C231.7 218.828 230.509 220.675 229.346 222.559C232.687 222.314 236.512 221.478 237.395 221.19C243.783 219.11 249.669 215.015 253.039 209.205ZM303.649 216.514C301.111 217.841 298.84 219.619 297.334 221.272C292.866 226.179 290.448 232.55 287.765 238.618C283.943 247.267 278.945 256.064 270.618 260.542C265.087 263.517 258.64 264.26 252.362 264.432C240.499 264.758 228.459 263.258 216.86 265.77C214.394 266.303 211.935 267.094 209.563 268.097C208.778 270.966 208.076 273.839 207.462 276.707C210.17 275.296 212.991 274.144 215.971 273.389C233.102 269.051 252.048 278.563 268.505 272.123C280.515 267.423 287.879 255.461 293.759 243.983C296.16 239.297 298.751 234.282 302.897 231.241C303.222 228.374 303.455 225.528 303.575 222.721C303.666 220.586 303.681 218.526 303.649 216.514ZM260.901 286.696C251.638 287.034 242.377 286.172 233.109 286.031C228.36 285.958 223.535 286.087 218.993 287.479C214.937 288.722 211.243 290.932 207.772 293.371C206.722 294.11 205.711 294.882 204.717 295.67C204.643 296.732 204.572 297.793 204.527 298.846C204.003 311.064 205.552 321.265 208.724 329.133C210.821 327.43 212.528 325.25 214.143 323.066C220.506 314.46 226.647 304.936 236.305 300.325C246.673 295.374 258.894 297.142 270.159 294.889C275.058 293.908 279.778 292.116 284.123 289.655C285.897 286.324 287.584 282.918 289.157 279.442C288.676 279.736 288.188 280.019 287.696 280.29C279.573 284.753 270.163 286.359 260.901 286.696Z" fill="#CB54E9"/>
<path d="M324.614 148.542C324.614 152.632 323.834 156.264 318.832 157.142C323.961 157.359 324.323 160.789 324.614 165.504C324.773 160.788 325.219 157.365 329.875 157.142C325.06 156.347 324.614 152.632 324.614 148.542Z" fill="#CB54E9"/>
<path d="M207.755 366.477C207.755 370.567 206.975 374.198 201.971 375.077C207.1 375.294 207.463 378.724 207.755 383.439C207.914 378.723 208.36 375.3 213.015 375.077C208.201 374.28 207.755 370.567 207.755 366.477Z" fill="#CB54E9"/>
<path d="M170.102 240.344C170.102 242.13 169.762 243.718 167.575 244.103C169.816 244.198 169.975 245.695 170.102 247.757C170.172 245.695 170.366 244.2 172.401 244.103C170.297 243.753 170.102 242.13 170.102 240.344Z" fill="#CB54E9"/>
<path d="M160.254 247.383C160.254 251.473 159.474 255.105 154.47 255.984C159.599 256.2 159.961 259.631 160.254 264.345C160.413 259.629 160.858 256.206 165.514 255.984C160.698 255.187 160.254 251.473 160.254 247.383Z" fill="#E0E0E0"/>
<path d="M155.559 226.871C155.559 228.971 155.158 230.836 152.59 231.287C155.223 231.398 155.41 233.159 155.559 235.581C155.641 233.159 155.87 231.402 158.26 231.287C155.788 230.878 155.559 228.971 155.559 226.871Z" fill="#E0E0E0"/>
<path d="M310.703 136.231C310.729 138.626 310.643 140.932 307.184 141.47C310.839 141.421 310.563 143.725 310.742 146.61C310.839 143.724 311.093 141.654 313.942 141.518C310.995 141.031 311.072 139.664 310.703 136.231Z" fill="#E0E0E0"/>
<path d="M340.751 247.659C340.504 252.177 340.143 254.133 336.058 254.676C340.22 254.902 340.563 257.651 340.802 261.499C340.932 257.651 341.27 254.858 345.069 254.676C341.14 254.026 341.045 252.237 340.751 247.659Z" fill="#E0E0E0"/>
<path d="M191.163 366.513C191.019 369.143 190.809 370.282 188.43 370.598C190.853 370.73 191.052 372.33 191.192 374.57C191.268 372.33 191.464 370.704 193.676 370.598C191.389 370.219 191.334 369.178 191.163 366.513Z" fill="#E0E0E0"/>
<path d="M332.204 144.35C332.22 145.8 332.168 147.195 330.073 147.52C332.285 147.49 332.119 148.885 332.226 150.631C332.285 148.884 332.439 147.631 334.163 147.549C332.381 147.254 332.428 146.428 332.204 144.35Z" fill="#E0E0E0"/>
<path d="M336.742 260.785C336.758 262.235 336.706 263.63 334.611 263.955C336.824 263.925 336.656 265.321 336.765 267.066C336.824 265.319 336.977 264.066 338.702 263.984C336.918 263.689 336.965 262.862 336.742 260.785Z" fill="#E0E0E0"/>
<path d="M202.301 360.762C202.317 362.211 202.265 363.607 200.17 363.932C202.382 363.902 202.216 365.297 202.323 367.043C202.382 365.296 202.535 364.043 204.26 363.961C202.477 363.666 202.525 362.84 202.301 360.762Z" fill="#E0E0E0"/>
<path d="M247.363 461.128L217.229 443.731L198.645 454.461L165.526 435.34L138.054 451.201L171.172 470.322L100.5 511.124L122.619 523.894L301.033 571.789L330.567 554.738L163.383 509.615L201.305 487.72L258.535 520.761L286.007 504.9L228.778 471.858L247.363 461.128Z" fill="#263238"/>
<path d="M166.947 341.664L165.524 342.485V296.219L148.362 286.311L127.123 298.574L144.643 232.71L127.481 222.802L97.9479 239.853L50.2178 418.312V443.851L67.3796 453.759L120.889 422.865V441.29L138.051 451.198L165.524 435.336V397.095L184.109 386.365V351.569L166.947 341.664ZM120.89 368.254L106.357 376.645L120.89 322.007V368.254Z" fill="#CB54E9"/>
<path opacity="0.3" d="M166.947 341.664L165.524 342.485V296.219L148.362 286.311L127.123 298.574L144.643 232.71L127.481 222.802L97.9479 239.853L50.2178 418.312V443.851L67.3796 453.759L120.889 422.865V441.29L138.051 451.198L165.524 435.336V397.095L184.109 386.365V351.569L166.947 341.664ZM120.89 368.254L106.357 376.645L120.89 322.007V368.254Z" fill="black"/>
<path d="M165.524 362.302V296.219L138.052 312.08V378.163L100.128 400.057L144.642 232.71L115.109 249.761L67.3809 428.219V453.76L138.052 412.958V451.199L165.524 435.339V397.096L184.109 386.366V351.572L165.524 362.302Z" fill="#CB54E9"/>
<path opacity="0.3" d="M165.524 362.302V296.219L138.052 312.08V378.163L100.128 400.057L144.642 232.71L115.109 249.761L67.3809 428.219V453.76L138.052 412.958V451.199L165.524 435.339V397.096L184.109 386.366V351.572L165.524 362.302Z" fill="white"/>
<path d="M144.642 232.71L127.48 222.801L97.9468 239.852L115.109 249.761L144.642 232.71Z" fill="#CB54E9"/>
<path opacity="0.5" d="M144.642 232.71L127.48 222.801L97.9468 239.852L115.109 249.761L144.642 232.71Z" fill="white"/>
<path d="M148.362 286.311L165.524 296.219L138.052 312.08L125.463 304.813L127.123 298.573L148.362 286.311Z" fill="#CB54E9"/>
<path opacity="0.5" d="M148.362 286.311L165.524 296.219L138.052 312.08L125.463 304.813L127.123 298.573L148.362 286.311Z" fill="white"/>
<path d="M138.052 378.163L120.89 368.254L106.357 376.645L100.128 400.057L138.052 378.163Z" fill="#CB54E9"/>
<path opacity="0.5" d="M138.052 378.163L120.89 368.254L106.357 376.645L100.128 400.057L138.052 378.163Z" fill="white"/>
<path d="M184.108 351.572L166.947 341.664L165.523 342.485V362.302L184.108 351.572Z" fill="#CB54E9"/>
<path opacity="0.5" d="M165.523 362.302L184.108 351.572L166.947 341.664L165.523 342.485V362.302Z" fill="white"/>
<path d="M67.3808 428.219L50.2178 418.312L97.9467 239.852L115.109 249.761L67.3808 428.219Z" fill="#CB54E9"/>
<path opacity="0.15" d="M67.3808 428.219L50.2178 418.312L97.9467 239.852L115.109 249.761L67.3808 428.219Z" fill="black"/>
<path d="M442.164 348.659L480.086 326.764L537.316 359.806L564.788 343.944L507.558 310.903L526.143 300.173L496.009 282.775L477.424 293.505L444.306 274.384L416.833 290.246L449.951 309.367L379.28 350.169L401.398 362.939L579.812 410.834L583.278 408.833C584.973 401.986 586.385 395.019 587.502 387.887L442.164 348.659Z" fill="#263238"/>
<path d="M445.729 180.708L444.306 181.53V135.263L427.144 125.356L405.905 137.618L423.425 71.7548L406.263 61.8471L376.729 78.8981L329 257.357V282.897L346.162 292.804L399.671 261.911V280.336L416.833 290.243L444.306 274.382V236.141L462.891 225.41V190.615L445.729 180.708ZM399.672 207.3L385.139 215.691L399.672 161.052V207.3Z" fill="#CB54E9"/>
<path opacity="0.3" d="M445.729 180.708L444.306 181.53V135.263L427.144 125.356L405.905 137.618L423.425 71.7548L406.263 61.8471L376.729 78.8981L329 257.357V282.897L346.162 292.804L399.671 261.911V280.336L416.833 290.243L444.306 274.382V236.141L462.891 225.41V190.615L445.729 180.708ZM399.672 207.3L385.139 215.691L399.672 161.052V207.3Z" fill="black"/>
<path d="M444.306 201.346V135.263L416.834 151.125V217.208L378.912 239.102L423.425 71.7548L393.891 88.8058L346.163 267.265V292.804L416.834 252.003V290.245L444.306 274.383V236.142L462.891 225.412V190.616L444.306 201.346Z" fill="#CB54E9"/>
<path opacity="0.3" d="M444.306 201.346V135.263L416.834 151.125V217.208L378.912 239.102L423.425 71.7548L393.891 88.8058L346.163 267.265V292.804L416.834 252.003V290.245L444.306 274.383V236.142L462.891 225.412V190.616L444.306 201.346Z" fill="white"/>
<path d="M423.425 71.7548L406.262 61.8471L376.729 78.8981L393.891 88.8058L423.425 71.7548Z" fill="#CB54E9"/>
<path opacity="0.5" d="M423.425 71.7548L406.262 61.8471L376.729 78.8981L393.891 88.8058L423.425 71.7548Z" fill="white"/>
<path d="M427.144 125.356L444.306 135.263L416.834 151.125L404.245 143.858L405.905 137.618L427.144 125.356Z" fill="#CB54E9"/>
<path opacity="0.5" d="M427.144 125.356L444.306 135.263L416.834 151.125L404.245 143.858L405.905 137.618L427.144 125.356Z" fill="white"/>
<path d="M416.834 217.208L399.672 207.3L385.139 215.691L378.912 239.102L416.834 217.208Z" fill="#CB54E9"/>
<path opacity="0.5" d="M416.834 217.208L399.672 207.3L385.139 215.691L378.912 239.102L416.834 217.208Z" fill="white"/>
<path d="M462.891 190.616L445.729 180.708L444.306 181.531V201.346L462.891 190.616Z" fill="#CB54E9"/>
<path opacity="0.5" d="M444.306 201.346L462.891 190.616L445.729 180.708L444.306 181.531V201.346Z" fill="white"/>
<path d="M346.163 267.265L329.001 257.357L376.729 78.8981L393.891 88.8058L346.163 267.265Z" fill="#CB54E9"/>
<path opacity="0.15" d="M346.163 267.265L329.001 257.357L376.729 78.8981L393.891 88.8058L346.163 267.265Z" fill="black"/>
<path d="M184.654 136.603C185.358 133.307 171.908 141.071 171.204 144.369L175.539 156.035C175.705 156.415 175.962 156.697 176.265 156.884C177.217 157.47 180.721 159.446 181.025 159.632C181.985 160.22 183.396 159.851 183.796 158.603L189.41 139.35C189.758 137.722 184.654 136.603 184.654 136.603Z" fill="#CB54E9"/>
<path opacity="0.25" d="M184.654 136.603C185.358 133.307 171.908 141.071 171.204 144.369L175.539 156.035C175.705 156.415 175.962 156.697 176.265 156.884C177.217 157.47 180.721 159.446 181.025 159.632C181.985 160.22 183.396 159.851 183.796 158.603L189.41 139.35C189.758 137.722 184.654 136.603 184.654 136.603Z" fill="black"/>
<path d="M230.388 72.187L118.179 136.925C117.182 137.5 116.373 138.899 116.373 140.05V176.666C116.373 177.818 117.183 179.214 118.181 179.786L119.308 180.43C120.307 181.002 121.925 180.998 122.922 180.423L235.133 115.613C236.13 115.037 236.938 113.637 236.938 112.486V75.9447C236.938 74.7936 236.127 73.397 235.128 72.8251L234.001 72.181C233.003 71.6091 231.385 71.6115 230.388 72.187Z" fill="#CB54E9"/>
<path opacity="0.25" d="M230.388 72.187L118.179 136.925C117.182 137.5 116.373 138.899 116.373 140.05V176.666C116.373 177.818 117.183 179.214 118.181 179.786L119.308 180.43C120.307 181.002 121.925 180.998 122.922 180.423L235.133 115.613C236.13 115.037 236.938 113.637 236.938 112.486V75.9447C236.938 74.7936 236.127 73.397 235.128 72.8251L234.001 72.181C233.003 71.6091 231.385 71.6115 230.388 72.187Z" fill="black"/>
<path d="M236.939 75.9459V76.6551C236.939 75.3764 235.549 74.5782 234.438 75.2175L123.6 139.249C122.828 139.687 122.211 140.319 121.787 141.062C121.772 141.082 121.766 141.097 121.759 141.117L116.882 138.303C117.215 137.727 117.667 137.22 118.181 136.927L230.388 72.187C231.388 71.6103 233.006 71.6103 234 72.1798L235.125 72.8263C236.126 73.3958 236.939 74.7925 236.939 75.9459Z" fill="#CB54E9"/>
<path opacity="0.45" d="M236.939 75.9459V76.6551C236.939 75.3764 235.549 74.5782 234.438 75.2175L123.6 139.249C122.828 139.687 122.211 140.319 121.787 141.062C121.772 141.082 121.766 141.097 121.759 141.117L116.882 138.303C117.215 137.727 117.667 137.22 118.181 136.927L230.388 72.187C231.388 71.6103 233.006 71.6103 234 72.1798L235.125 72.8263C236.126 73.3958 236.939 74.7925 236.939 75.9459Z" fill="white"/>
<path d="M235.27 75.6401C235.094 75.6401 234.925 75.687 234.766 75.7785L123.925 139.808C122.595 140.578 121.767 142.009 121.767 143.548V178.571C121.767 178.912 121.838 179.703 122.499 179.703C122.727 179.703 122.999 179.615 123.286 179.45L177.127 148.35L180.722 158.319C181.413 159.902 183.697 159.786 184.223 158.142L189.091 141.439L234.119 115.444C235.618 114.582 236.287 113.711 236.287 112.616V76.6563C236.287 76.029 235.76 75.6401 235.27 75.6401Z" fill="#263238"/>
<path d="M122.5 180.347C121.664 180.347 121.124 179.65 121.124 178.571V143.548C121.124 141.782 122.075 140.135 123.604 139.251L234.443 75.2211C234.703 75.0718 234.981 74.996 235.27 74.996C236.069 74.996 236.931 75.6317 236.931 76.6575V112.615C236.931 114.367 235.51 115.388 234.44 116.002L189.637 141.866L184.843 158.321C184.515 159.346 183.623 160.031 182.567 160.085C181.516 160.136 180.555 159.547 180.132 158.576L176.782 149.294L123.61 180.009C123.217 180.233 122.845 180.347 122.5 180.347ZM235.27 76.2854C235.209 76.2854 235.148 76.3023 235.087 76.3384L124.249 140.367C123.116 141.021 122.413 142.241 122.413 143.548V178.571C122.413 178.869 122.482 179.041 122.512 179.073C122.541 179.059 122.697 179.047 122.964 178.892L177.471 147.406L181.327 158.1C181.562 158.635 182.093 158.814 182.501 158.797C182.912 158.775 183.418 158.54 183.61 157.943L188.544 141.009L188.769 140.88L233.797 114.884C235.423 113.95 235.643 113.212 235.643 112.615V76.6563C235.642 76.3781 235.387 76.2854 235.27 76.2854Z" fill="#CB54E9"/>
<path opacity="0.3" d="M132.125 166.169C131.412 166.169 130.579 165.669 130.579 164.259V146.788C130.579 145.638 131.073 144.718 131.973 144.199L132.382 143.962C132.723 143.767 133.06 143.67 133.39 143.67C133.654 143.67 134.547 143.755 134.968 144.848L137.019 149.965V143.071C137.019 141.922 137.514 141.002 138.412 140.483L138.642 140.35C138.98 140.154 139.303 140.058 139.625 140.058C140.211 140.058 140.876 140.396 141.1 141.3C141.187 140.984 141.311 140.669 141.469 140.355L142.131 139.087C142.505 138.372 142.993 137.839 143.577 137.499L147.559 135.202C147.934 134.985 148.312 134.874 148.683 134.874C149.114 134.874 149.522 135.023 149.863 135.302L149.89 135.322C150 133.99 150.785 133.337 151.268 133.059L157.749 129.319C158.091 129.121 158.415 129.024 158.737 129.024C159.453 129.024 160.289 129.531 160.289 130.958V131.259C160.289 132.373 159.794 133.271 158.895 133.79L157.418 134.642C157.327 134.696 157.171 134.787 157.171 135.245V150.201C157.171 151.35 156.678 152.269 155.782 152.789L155.552 152.921C155.21 153.119 154.889 153.215 154.566 153.215C153.816 153.215 153.015 152.707 153.015 151.28C153.015 151.28 153.014 140.539 153.013 137.19L152.416 137.534C152.069 137.734 151.741 137.833 151.416 137.833C151.393 137.833 151.372 137.833 151.349 137.832V151.898C151.349 152.605 151.168 153.319 150.815 154.018L150.153 155.287C149.779 156.002 149.291 156.536 148.706 156.875L144.747 159.159C144.362 159.382 143.976 159.495 143.599 159.495C143.193 159.495 142.805 159.363 142.478 159.115L141.802 158.605C141.588 158.442 141.351 158.192 141.179 157.818V159.466C141.179 160.598 140.684 161.506 139.784 162.026L139.556 162.158C139.214 162.356 138.881 162.455 138.542 162.455C138.282 162.455 137.402 162.371 136.979 161.312L134.74 155.774V163.184C134.74 164.313 134.246 165.223 133.349 165.744L133.12 165.875C132.776 166.071 132.448 166.169 132.125 166.169ZM145.34 141.616C145.248 141.67 145.094 141.759 145.094 142.192C145.094 142.192 145.095 150.85 145.095 153.823L146.943 152.756C147.036 152.702 147.19 152.613 147.19 152.181C147.19 152.181 147.189 143.522 147.189 140.549L145.34 141.616ZM164.053 147.736C163.341 147.736 162.509 147.236 162.509 145.826V128.381C162.509 127.248 163.005 126.338 163.905 125.82L170.362 122.093C170.708 121.893 171.033 121.797 171.354 121.797C171.872 121.797 172.455 122.06 172.733 122.745C172.805 122.549 172.888 122.355 172.987 122.16L173.649 120.891C174.026 120.175 174.511 119.641 175.095 119.303L179.077 117.007C179.449 116.79 179.829 116.68 180.203 116.68C180.633 116.68 181.039 116.828 181.381 117.105L182.003 117.575C182.217 117.739 182.455 117.988 182.626 118.362V116.711C182.626 115.579 183.121 114.671 184.021 114.151L184.251 114.019C184.591 113.823 184.915 113.725 185.24 113.725C185.953 113.725 186.786 114.225 186.786 115.635C186.786 115.635 186.787 126.398 186.789 129.754L188.637 128.687C188.729 128.633 188.884 128.544 188.884 128.085V113.1C188.884 111.97 189.378 111.061 190.277 110.54L190.508 110.407C190.846 110.211 191.17 110.114 191.496 110.114C191.972 110.114 192.5 110.337 192.8 110.903V110.866C192.8 109.314 193.673 108.579 194.193 108.278L194.6 108.042C194.947 107.843 195.276 107.747 195.609 107.747C195.947 107.747 196.778 107.863 197.187 108.926L199.239 114.044V107.149C199.239 106 199.734 105.08 200.632 104.561L200.857 104.431C201.199 104.233 201.523 104.136 201.845 104.136C202.323 104.136 202.854 104.363 203.155 104.938V104.915C203.155 103.782 203.649 102.873 204.548 102.354L209.777 99.336C210.151 99.1193 210.529 99.0097 210.902 99.0097C211.335 99.0097 211.741 99.1578 212.082 99.4359L212.701 99.9031C213.098 100.204 213.568 100.798 213.568 101.922V115.975C213.568 116.682 213.387 117.396 213.035 118.097L212.371 119.366C211.993 120.085 211.507 120.619 210.922 120.955L205.695 123.972C205.348 124.172 205.022 124.27 204.702 124.27C204.226 124.27 203.698 124.047 203.398 123.481V123.544C203.398 124.677 202.903 125.586 202.005 126.105L201.78 126.233C201.436 126.433 201.103 126.532 200.762 126.532C200.502 126.532 199.621 126.45 199.199 125.393L196.959 119.852V127.262C196.959 128.395 196.464 129.304 195.566 129.822L195.343 129.951C194.991 130.152 194.668 130.25 194.346 130.25C193.757 130.25 193.088 129.909 192.872 128.999C192.784 129.308 192.663 129.615 192.509 129.922L191.847 131.19C191.478 131.919 190.989 132.465 190.398 132.806L186.439 135.091C186.064 135.309 185.686 135.419 185.315 135.419C184.883 135.419 184.474 135.269 184.134 134.989L183.496 134.508C183.28 134.344 183.043 134.093 182.871 133.719C182.867 134.421 182.688 135.127 182.337 135.822L181.675 137.089C181.302 137.803 180.816 138.337 180.228 138.678L176.269 140.962C175.885 141.185 175.5 141.298 175.121 141.298C174.715 141.298 174.326 141.167 174 140.919L173.323 140.406C172.929 140.109 172.46 139.518 172.46 138.39V134.988C172.229 135.355 171.911 135.661 171.513 135.889L166.92 138.541C166.815 138.601 166.673 138.685 166.673 139.117V144.75C166.673 145.881 166.178 146.79 165.28 147.311L165.053 147.441C164.702 147.638 164.377 147.736 164.053 147.736ZM176.859 123.418C176.756 123.479 176.614 123.563 176.614 123.995C176.614 123.995 176.615 132.653 176.615 135.627L178.463 134.56C178.554 134.506 178.709 134.417 178.709 133.985C178.709 133.985 178.707 125.326 178.707 122.353L176.859 123.418ZM172.455 125.663C172.224 126.03 171.906 126.336 171.509 126.564L166.915 129.216C166.818 129.272 166.669 129.36 166.669 129.791C166.669 129.791 166.669 132.158 166.67 133.548L170.364 131.415C170.709 131.216 171.034 131.119 171.356 131.119C171.736 131.119 172.152 131.261 172.456 131.609L172.455 125.663ZM207.559 105.75C207.454 105.809 207.312 105.893 207.312 106.325C207.312 106.325 207.313 114.939 207.313 117.902L209.161 116.835C209.253 116.782 209.408 116.692 209.408 116.259C209.408 116.259 209.407 107.646 209.407 104.683L207.559 105.75ZM224.758 115.114C224.409 115.113 223.554 114.988 223.152 113.859L222.015 110.915C221.874 110.574 221.765 110.115 221.684 109.528L220.983 104.041C220.947 103.589 220.934 103.341 220.934 103.236C220.934 103.094 220.947 102.828 220.979 102.439L221.679 96.0949C221.754 95.4652 221.856 94.9209 221.981 94.4719L223.125 90.1856C223.388 89.2489 223.884 88.5662 224.604 88.1509L225.016 87.9125C225.365 87.7102 225.691 87.6115 226.011 87.6115H226.088L226.27 87.6319L226.477 87.6885C226.81 87.8161 227.45 88.1773 227.45 89.2019C227.45 89.4885 227.409 89.7835 227.326 90.0785L226.156 94.1492C226.038 94.5634 225.955 94.9968 225.907 95.4363L225.291 101.472C225.271 101.745 225.258 101.951 225.258 102.062C225.258 102.171 225.271 102.358 225.294 102.624L225.907 107.895C225.946 108.223 226.014 108.504 226.109 108.725L227.275 111.44C227.393 111.72 227.451 112.03 227.451 112.363C227.451 112.794 227.343 113.213 227.129 113.606C226.905 114.016 226.581 114.346 226.165 114.588L225.749 114.828C225.421 115.018 225.089 115.116 224.762 115.116L224.758 115.114ZM218.343 112.206C217.636 112.206 216.812 111.719 216.812 110.345V109.115C216.812 107.541 217.682 106.802 218.201 106.501L218.638 106.251C218.979 106.056 219.298 105.96 219.617 105.96C220.371 105.96 221.175 106.476 221.175 107.919V109.15C221.175 110.245 220.68 111.135 219.782 111.654L219.348 111.905C218.998 112.107 218.669 112.206 218.343 112.206ZM218.343 102.17C217.636 102.17 216.812 101.684 216.812 100.31V99.0796C216.812 97.5071 217.682 96.7679 218.201 96.4669L218.638 96.2165C218.975 96.0214 219.295 95.9263 219.617 95.9263C220.371 95.9263 221.175 96.4404 221.175 97.8852V99.1157C221.175 100.214 220.679 101.103 219.779 101.621L219.347 101.869C218.998 102.072 218.669 102.17 218.343 102.17Z" fill="#CB54E9"/>
<path opacity="0.3" d="M132.125 165.596C131.896 165.596 131.152 165.499 131.152 164.259V146.788C131.152 145.588 131.754 144.988 132.26 144.696L132.669 144.46C132.918 144.316 133.161 144.243 133.39 144.243C133.609 144.243 134.152 144.322 134.434 145.054L137.582 152.912C137.59 152.844 137.592 152.772 137.592 152.696V143.073C137.592 141.872 138.194 141.271 138.699 140.98L138.926 140.85C139.177 140.704 139.406 140.633 139.626 140.633C139.856 140.633 140.604 140.732 140.604 141.994V159.466C140.604 160.642 140.002 161.237 139.497 161.53L139.269 161.66C139.014 161.809 138.774 161.881 138.54 161.881C138.324 161.881 137.79 161.806 137.509 161.1L134.176 152.859C134.168 152.932 134.164 153.012 134.164 153.095V163.184C134.164 164.359 133.563 164.954 133.059 165.248L132.833 165.378C132.576 165.525 132.345 165.596 132.125 165.596ZM143.598 158.921C143.318 158.921 143.05 158.829 142.822 158.657L142.146 158.147C141.723 157.825 141.509 157.3 141.509 156.585V142.477C141.509 141.86 141.668 141.233 141.979 140.614L142.639 139.353C142.963 138.737 143.375 138.281 143.865 137.996L147.845 135.699C148.132 135.534 148.414 135.449 148.683 135.449C148.979 135.449 149.262 135.552 149.5 135.746L150.138 136.23C150.56 136.549 150.776 137.074 150.776 137.789V151.898C150.776 152.514 150.617 153.142 150.304 153.76L149.645 155.022C149.32 155.641 148.907 156.096 148.418 156.379L144.461 158.663C144.163 158.834 143.875 158.921 143.598 158.921ZM145.054 141.121C144.826 141.253 144.522 141.509 144.522 142.192C144.522 142.192 144.523 154.785 144.525 154.815L147.23 153.252C147.46 153.12 147.763 152.865 147.763 152.182C147.763 152.182 147.762 139.587 147.761 139.558L145.054 141.121ZM154.566 152.641C154.272 152.641 153.588 152.508 153.588 151.279C153.588 151.279 153.587 136.233 153.585 136.196L152.129 137.036C151.87 137.186 151.638 137.258 151.416 137.258C151.19 137.258 150.451 137.163 150.451 135.947V135.646C150.451 134.447 151.052 133.847 151.556 133.556L158.037 129.815C158.29 129.668 158.52 129.597 158.738 129.597C158.968 129.597 159.717 129.696 159.717 130.958V131.259C159.717 132.171 159.334 132.876 158.61 133.295L157.133 134.147C156.903 134.281 156.6 134.537 156.6 135.247V150.203C156.6 151.402 155.999 152.003 155.496 152.294L155.267 152.425C155.014 152.57 154.784 152.641 154.566 152.641ZM164.054 147.162C163.825 147.162 163.081 147.066 163.081 145.826V128.381C163.081 127.201 163.684 126.608 164.19 126.316L170.648 122.588C170.904 122.44 171.134 122.369 171.355 122.369C171.583 122.369 172.329 122.465 172.329 123.705V124.005C172.329 125.182 171.727 125.777 171.222 126.068L166.629 128.721C166.4 128.854 166.096 129.109 166.096 129.791C166.096 129.791 166.097 134.51 166.098 134.54L170.65 131.913C170.907 131.765 171.137 131.694 171.357 131.694C171.586 131.694 172.331 131.79 172.331 133.03V133.33C172.331 134.507 171.729 135.102 171.225 135.393L166.631 138.046C166.383 138.19 166.098 138.441 166.098 139.117V144.75C166.098 145.928 165.496 146.522 164.991 146.815L164.766 146.943C164.505 147.09 164.274 147.162 164.054 147.162ZM175.117 140.724C174.837 140.724 174.569 140.633 174.342 140.461L173.665 139.948C173.244 139.63 173.028 139.105 173.028 138.389V124.28C173.028 123.664 173.187 123.037 173.499 122.418L174.158 121.156C174.483 120.537 174.894 120.082 175.383 119.798L179.364 117.502C179.65 117.336 179.932 117.252 180.203 117.252C180.499 117.252 180.782 117.355 181.019 117.548L181.657 118.031C182.08 118.352 182.295 118.876 182.295 119.59V133.698C182.295 134.313 182.136 134.942 181.823 135.562L181.165 136.823C180.843 137.439 180.43 137.897 179.939 138.181L175.98 140.465C175.683 140.636 175.392 140.724 175.117 140.724ZM176.573 122.922C176.326 123.067 176.041 123.318 176.041 123.994C176.041 123.994 176.042 136.587 176.043 136.617L178.75 135.054C178.978 134.921 179.282 134.666 179.282 133.982C179.282 133.982 179.281 121.388 179.279 121.358L176.573 122.922ZM185.311 134.843C185.013 134.843 184.731 134.74 184.495 134.545L183.838 134.049C183.415 133.726 183.2 133.202 183.2 132.487V116.711C183.2 115.535 183.802 114.94 184.307 114.647L184.535 114.517C184.789 114.369 185.02 114.298 185.239 114.298C185.468 114.298 186.212 114.394 186.212 115.635C186.212 115.635 186.213 130.71 186.216 130.745L188.921 129.182C189.15 129.05 189.454 128.793 189.454 128.084V113.1C189.454 111.924 190.056 111.329 190.561 111.036L190.791 110.905C191.042 110.758 191.275 110.687 191.495 110.687C191.724 110.687 192.468 110.784 192.468 112.024V127.801C192.468 128.415 192.309 129.041 191.996 129.662L191.337 130.924C191.017 131.557 190.603 132.026 190.111 132.31L186.152 134.595C185.863 134.759 185.581 134.843 185.311 134.843ZM194.344 129.674C194.115 129.674 193.371 129.578 193.371 128.338V110.866C193.371 109.666 193.973 109.066 194.477 108.775L194.886 108.538C195.141 108.391 195.376 108.32 195.608 108.32C195.881 108.32 196.38 108.425 196.652 109.132L199.802 116.989C199.809 116.926 199.811 116.855 199.811 116.774V107.15C199.811 105.951 200.413 105.35 200.918 105.059L201.143 104.929C201.396 104.782 201.626 104.711 201.844 104.711C202.073 104.711 202.822 104.809 202.822 106.072V123.544C202.822 124.721 202.22 125.316 201.716 125.607L201.491 125.737C201.233 125.888 200.993 125.959 200.76 125.959H200.759C200.543 125.959 200.009 125.883 199.728 125.18L196.395 116.936C196.387 117.01 196.383 117.089 196.383 117.172V127.262C196.383 128.439 195.781 129.034 195.277 129.325L195.052 129.456C194.794 129.602 194.564 129.674 194.344 129.674ZM204.699 123.697C204.471 123.697 203.727 123.6 203.727 122.36V104.915C203.727 103.738 204.329 103.143 204.833 102.852L210.062 99.8321C210.351 99.6659 210.633 99.5828 210.901 99.5828C211.197 99.5828 211.479 99.6852 211.718 99.879L212.356 100.361C212.779 100.683 212.995 101.208 212.995 101.922V115.975C212.995 116.591 212.836 117.219 212.523 117.839L211.863 119.101C211.537 119.721 211.124 120.177 210.635 120.458L205.407 123.476C205.15 123.623 204.92 123.697 204.699 123.697ZM207.272 105.252C207.024 105.397 206.739 105.649 206.739 106.324C206.739 106.324 206.74 118.862 206.741 118.891L209.448 117.33C209.678 117.196 209.981 116.942 209.981 116.258C209.981 116.258 209.98 103.72 209.979 103.691L207.272 105.252ZM224.76 114.541C224.477 114.54 223.962 114.427 223.692 113.667L222.55 110.709C222.425 110.406 222.325 109.989 222.251 109.45L221.552 103.968C221.52 103.568 221.507 103.334 221.507 103.235C221.507 103.101 221.52 102.849 221.549 102.483L222.249 96.1562C222.32 95.5627 222.415 95.0486 222.533 94.626L223.679 90.3325C223.898 89.5487 224.307 88.984 224.89 88.6457L225.302 88.4085C225.561 88.2592 225.793 88.1833 226.011 88.1833H226.117L226.324 88.2399C226.533 88.3218 226.876 88.5518 226.876 89.2007C226.876 89.4355 226.841 89.6787 226.772 89.9231L225.603 93.9902C225.477 94.4345 225.387 94.9005 225.335 95.3736L224.72 101.413C224.695 101.722 224.682 101.943 224.682 102.061C224.682 102.179 224.695 102.383 224.721 102.671L225.335 107.959C225.382 108.344 225.465 108.678 225.579 108.948L226.746 111.664C226.833 111.871 226.875 112.103 226.875 112.361C226.875 112.696 226.789 113.021 226.622 113.33C226.45 113.646 226.198 113.902 225.874 114.09L225.46 114.328C225.222 114.469 224.984 114.541 224.76 114.541ZM218.343 111.632C218.118 111.632 217.384 111.54 217.384 110.345V109.115C217.384 107.894 217.984 107.288 218.488 106.997L218.922 106.748C219.171 106.605 219.399 106.534 219.616 106.534C219.912 106.534 220.601 106.67 220.601 107.919V109.15C220.601 110.046 220.218 110.74 219.494 111.158L219.061 111.407C218.801 111.559 218.566 111.632 218.343 111.632ZM218.343 101.597C218.118 101.597 217.384 101.504 217.384 100.31V99.0796C217.384 97.8587 217.984 97.2543 218.488 96.9629L218.922 96.7137C219.171 96.5692 219.399 96.5006 219.616 96.5006C219.912 96.5006 220.601 96.6354 220.601 97.8864V99.1169C220.601 100.013 220.218 100.709 219.493 101.125L219.061 101.373C218.801 101.524 218.566 101.597 218.343 101.597Z" fill="#CB54E9"/>
<path d="M132.771 164.751L132.546 164.881C131.998 165.196 131.725 164.99 131.725 164.261V146.788C131.725 146.04 131.998 145.508 132.546 145.193L132.955 144.957C133.407 144.697 133.721 144.798 133.898 145.26L137.199 153.498C137.268 153.659 137.353 153.768 137.456 153.824C137.558 153.88 137.657 153.88 137.753 153.824C137.877 153.753 137.976 153.621 138.05 153.426C138.125 153.232 138.164 152.987 138.164 152.696V143.071C138.164 142.324 138.437 141.793 138.984 141.476L139.209 141.347C139.755 141.032 140.03 141.247 140.03 141.994V159.466C140.03 160.195 139.755 160.717 139.209 161.034L138.984 161.164C138.532 161.425 138.218 161.334 138.04 160.888L134.553 152.265C134.416 151.895 134.239 151.774 134.021 151.899C133.897 151.97 133.794 152.116 133.712 152.331C133.631 152.548 133.588 152.803 133.588 153.093V163.183C133.591 163.913 133.318 164.434 132.771 164.751Z" fill="#CB54E9"/>
<path d="M149.792 153.502L149.136 154.756C148.861 155.279 148.527 155.653 148.13 155.883L144.172 158.168C143.774 158.397 143.44 158.408 143.166 158.202L142.49 157.69C142.216 157.483 142.079 157.116 142.079 156.586V142.478C142.079 141.949 142.216 141.415 142.49 140.873L143.146 139.619C143.419 139.097 143.754 138.721 144.15 138.493L148.129 136.195C148.525 135.967 148.86 135.965 149.135 136.189L149.791 136.687C150.064 136.894 150.201 137.261 150.201 137.789V151.898C150.202 152.426 150.065 152.961 149.792 153.502ZM148.336 152.182V139.659C148.336 138.931 148.063 138.724 147.516 139.039L144.769 140.625C144.221 140.941 143.949 141.464 143.949 142.192V154.715C143.949 155.445 144.222 155.652 144.769 155.335L147.516 153.75C148.062 153.434 148.336 152.912 148.336 152.182Z" fill="#CB54E9"/>
<path d="M151.842 134.052L158.324 130.311C158.87 129.996 159.143 130.213 159.143 130.959V131.26C159.143 131.97 158.87 132.485 158.324 132.8L156.846 133.654C156.3 133.969 156.026 134.501 156.026 135.248V150.204C156.026 150.951 155.753 151.484 155.206 151.799L154.98 151.929C154.432 152.245 154.16 152.029 154.16 151.281V136.325C154.16 135.578 153.887 135.362 153.34 135.678L151.842 136.542C151.296 136.859 151.022 136.66 151.022 135.95V135.649C151.022 134.9 151.296 134.368 151.842 134.052Z" fill="#CB54E9"/>
<path d="M164.475 126.814L170.934 123.084C171.481 122.768 171.754 122.974 171.754 123.704V124.005C171.754 124.734 171.481 125.257 170.934 125.572L166.341 128.224C165.793 128.54 165.521 129.062 165.521 129.791V134.439C165.521 135.168 165.794 135.375 166.341 135.059L170.934 132.406C171.481 132.091 171.754 132.298 171.754 133.026V133.326C171.754 134.056 171.481 134.578 170.934 134.894L166.341 137.546C165.793 137.863 165.521 138.385 165.521 139.114V144.746C165.521 145.476 165.248 145.998 164.701 146.314L164.476 146.444C163.928 146.76 163.655 146.553 163.655 145.824V128.379C163.655 127.652 163.928 127.129 164.475 126.814Z" fill="#CB54E9"/>
<path d="M181.31 135.304L180.654 136.558C180.381 137.08 180.045 137.456 179.65 137.685L175.691 139.969C175.295 140.197 174.959 140.209 174.687 140.002L174.01 139.491C173.737 139.285 173.6 138.918 173.6 138.388V124.279C173.6 123.75 173.737 123.216 174.01 122.674L174.666 121.421C174.94 120.898 175.274 120.523 175.67 120.294L179.65 117.998C180.046 117.769 180.381 117.768 180.654 117.992L181.31 118.488C181.583 118.695 181.721 119.064 181.721 119.591V133.699C181.721 134.228 181.583 134.763 181.31 135.304ZM179.854 133.985V121.462C179.854 120.734 179.581 120.525 179.034 120.841L176.286 122.426C175.739 122.743 175.466 123.266 175.466 123.994V136.517C175.466 137.248 175.739 137.453 176.286 137.137L179.034 135.551C179.581 135.236 179.854 134.713 179.854 133.985Z" fill="#CB54E9"/>
<path d="M190.847 111.533L191.073 111.404C191.62 111.088 191.893 111.295 191.893 112.024V127.801C191.893 128.328 191.756 128.864 191.483 129.405L190.827 130.658C190.553 131.2 190.217 131.584 189.821 131.813L185.863 134.099C185.466 134.328 185.131 134.329 184.857 134.105L184.181 133.592C183.907 133.386 183.77 133.019 183.77 132.489V116.711C183.77 115.983 184.043 115.46 184.591 115.143L184.816 115.015C185.363 114.698 185.636 114.906 185.636 115.635V130.617C185.636 131.365 185.91 131.58 186.456 131.266L189.205 129.679C189.75 129.364 190.025 128.833 190.025 128.085V113.1C190.026 112.371 190.301 111.848 190.847 111.533Z" fill="#CB54E9"/>
<path d="M194.99 128.828L194.765 128.959C194.217 129.275 193.944 129.068 193.944 128.339V110.866C193.944 110.119 194.217 109.587 194.765 109.271L195.174 109.034C195.625 108.774 195.939 108.875 196.117 109.338L199.418 117.575C199.487 117.738 199.573 117.845 199.675 117.902C199.777 117.957 199.876 117.957 199.972 117.902C200.095 117.831 200.195 117.698 200.27 117.503C200.344 117.311 200.383 117.066 200.383 116.774V107.149C200.383 106.401 200.656 105.87 201.203 105.553L201.428 105.423C201.975 105.108 202.248 105.324 202.248 106.071V123.544C202.248 124.273 201.975 124.796 201.428 125.111L201.203 125.241C200.751 125.501 200.436 125.41 200.259 124.966L196.772 116.343C196.635 115.972 196.458 115.85 196.239 115.976C196.115 116.048 196.012 116.192 195.93 116.409C195.849 116.625 195.808 116.881 195.808 117.171V127.26C195.81 127.991 195.537 128.513 194.99 128.828Z" fill="#CB54E9"/>
<path d="M212.01 117.58L211.353 118.834C211.08 119.356 210.745 119.732 210.349 119.961L205.12 122.98C204.574 123.296 204.3 123.089 204.3 122.36V104.915C204.3 104.185 204.574 103.663 205.12 103.348L210.349 100.328C210.745 100.099 211.08 100.097 211.353 100.322L212.01 100.818C212.283 101.025 212.42 101.394 212.42 101.921V115.974C212.42 116.504 212.283 117.038 212.01 117.58ZM206.985 119.414L209.733 117.828C210.279 117.513 210.553 116.99 210.553 116.262V103.792C210.553 103.062 210.279 102.855 209.733 103.171L206.985 104.756C206.437 105.073 206.165 105.596 206.165 106.324V118.793C206.165 119.523 206.439 119.731 206.985 119.414Z" fill="#CB54E9"/>
<path d="M219.208 100.627L218.777 100.875C218.231 101.191 217.958 101.002 217.958 100.31V99.0796C217.958 98.3138 218.231 97.7732 218.777 97.4578L219.208 97.2098C219.755 96.8943 220.028 97.1195 220.028 97.884V99.1145C220.028 99.808 219.755 100.312 219.208 100.627ZM219.208 110.662L218.777 110.91C218.231 111.226 217.958 111.038 217.958 110.345V109.115C217.958 108.349 218.231 107.809 218.777 107.493L219.208 107.245C219.755 106.93 220.028 107.155 220.028 107.919V109.15C220.028 109.842 219.755 110.347 219.208 110.662Z" fill="#CB54E9"/>
<path d="M226.304 112.362C226.304 112.599 226.242 112.83 226.121 113.057C225.998 113.283 225.819 113.463 225.587 113.596L225.177 113.832C224.725 114.093 224.411 113.974 224.233 113.476L223.084 110.503C222.975 110.237 222.886 109.86 222.818 109.371L222.121 103.896C222.093 103.548 222.08 103.327 222.08 103.235C222.08 103.108 222.093 102.872 222.121 102.528L222.818 96.2189C222.886 95.6506 222.975 95.1714 223.084 94.7801L224.233 90.4794C224.411 89.8485 224.725 89.403 225.177 89.1417L225.587 88.9058C225.819 88.7721 225.997 88.7288 226.121 88.7757C226.244 88.8239 226.304 88.966 226.304 89.2019C226.304 89.3837 226.276 89.5728 226.222 89.769L225.054 93.8337C224.917 94.3141 224.822 94.8066 224.766 95.3122L224.151 101.355C224.123 101.698 224.11 101.935 224.11 102.062C224.11 102.189 224.123 102.41 224.151 102.722L224.766 108.026C224.822 108.47 224.917 108.851 225.054 109.173L226.222 111.889C226.276 112.023 226.304 112.18 226.304 112.362Z" fill="#CB54E9"/>
<path opacity="0.6" d="M170.935 123.084L164.476 126.812C163.928 127.129 163.655 127.65 163.655 128.38V145.825C163.655 146.554 163.928 146.762 164.476 146.445L164.701 146.315C165.248 145.999 165.521 145.477 165.521 144.747V139.115C165.521 138.387 165.794 137.863 166.341 137.547L170.934 134.896C171.481 134.581 171.754 134.058 171.754 133.329V133.028C171.754 132.299 171.481 132.092 170.934 132.407L166.341 135.06C165.794 135.375 165.521 135.169 165.521 134.44V129.792C165.521 129.063 165.794 128.541 166.341 128.225L170.934 125.574C171.481 125.258 171.754 124.736 171.754 124.006V123.706C171.755 122.974 171.481 122.768 170.935 123.084ZM139.21 141.345L138.985 141.475C138.437 141.791 138.165 142.322 138.165 143.07V152.695C138.165 152.986 138.127 153.231 138.052 153.425C137.977 153.62 137.877 153.752 137.754 153.823C137.658 153.878 137.559 153.878 137.457 153.823C137.355 153.768 137.269 153.659 137.2 153.497L133.898 145.259C133.721 144.797 133.407 144.696 132.955 144.956L132.546 145.192C131.999 145.507 131.725 146.039 131.725 146.787V164.259C131.725 164.989 131.998 165.195 132.546 164.879L132.771 164.749C133.318 164.434 133.591 163.911 133.591 163.182V153.092C133.591 152.802 133.633 152.547 133.715 152.33C133.797 152.113 133.898 151.969 134.023 151.897C134.241 151.771 134.418 151.893 134.555 152.263L138.041 160.886C138.219 161.33 138.533 161.421 138.985 161.161L139.21 161.033C139.756 160.716 140.031 160.193 140.031 159.465V141.993C140.031 141.246 139.756 141.029 139.21 141.345ZM180.655 117.992C180.382 117.767 180.046 117.769 179.651 117.998L175.672 120.294C175.276 120.523 174.941 120.9 174.668 121.421L174.011 122.674C173.738 123.216 173.601 123.75 173.601 124.279V138.388C173.601 138.918 173.738 139.285 174.011 139.491L174.688 140.002C174.961 140.209 175.296 140.197 175.693 139.969L179.652 137.685C180.048 137.456 180.383 137.08 180.656 136.558L181.313 135.304C181.586 134.764 181.723 134.229 181.723 133.699V119.591C181.723 119.064 181.586 118.695 181.313 118.488L180.655 117.992ZM179.855 133.985C179.855 134.713 179.581 135.237 179.035 135.551L176.286 137.138C175.739 137.455 175.466 137.248 175.466 136.518V123.995C175.466 123.267 175.739 122.744 176.286 122.428L179.035 120.842C179.58 120.526 179.855 120.734 179.855 121.463V133.985ZM149.136 136.189C148.861 135.964 148.526 135.967 148.132 136.195L144.152 138.492C143.756 138.721 143.42 139.098 143.148 139.619L142.492 140.873C142.219 141.415 142.081 141.949 142.081 142.478V156.586C142.081 157.116 142.219 157.483 142.492 157.69L143.169 158.202C143.442 158.409 143.777 158.397 144.174 158.168L148.133 155.883C148.529 155.654 148.864 155.28 149.137 154.756L149.793 153.502C150.065 152.962 150.204 152.426 150.204 151.898V137.789C150.204 137.261 150.066 136.894 149.793 136.686L149.136 136.189ZM148.335 152.182C148.335 152.912 148.062 153.434 147.515 153.75L144.768 155.335C144.221 155.651 143.948 155.445 143.948 154.715V142.192C143.948 141.464 144.221 140.94 144.768 140.625L147.515 139.039C148.062 138.724 148.335 138.931 148.335 139.659V152.182ZM158.323 130.31L151.842 134.051C151.296 134.366 151.022 134.899 151.022 135.646V135.947C151.022 136.658 151.296 136.856 151.842 136.54L153.34 135.675C153.887 135.36 154.16 135.575 154.16 136.323V151.279C154.16 152.027 154.433 152.242 154.98 151.927L155.206 151.797C155.752 151.481 156.025 150.949 156.025 150.201V135.245C156.025 134.499 156.298 133.967 156.845 133.651L158.322 132.798C158.869 132.482 159.142 131.968 159.142 131.258V130.957C159.143 130.211 158.87 129.995 158.323 130.31ZM191.073 111.402L190.847 111.531C190.3 111.848 190.027 112.371 190.027 113.099V128.084C190.027 128.832 189.754 129.363 189.207 129.678L186.458 131.265C185.911 131.58 185.639 131.365 185.639 130.616V115.635C185.639 114.906 185.365 114.698 184.819 115.014L184.593 115.143C184.046 115.459 183.772 115.983 183.772 116.711V132.488C183.772 133.018 183.91 133.385 184.183 133.591L184.86 134.104C185.133 134.329 185.468 134.327 185.864 134.098L189.822 131.811C190.217 131.583 190.553 131.199 190.827 130.657L191.483 129.403C191.756 128.863 191.893 128.328 191.893 127.8V112.023C191.893 111.294 191.619 111.087 191.073 111.402ZM219.208 107.244L218.777 107.492C218.231 107.807 217.957 108.349 217.957 109.114V110.344C217.957 111.038 218.231 111.226 218.777 110.909L219.208 110.661C219.755 110.345 220.028 109.841 220.028 109.149V107.918C220.028 107.154 219.755 106.93 219.208 107.244ZM225.053 109.174C224.915 108.851 224.82 108.47 224.765 108.028L224.15 102.723C224.122 102.411 224.109 102.191 224.109 102.062C224.109 101.935 224.122 101.699 224.15 101.355L224.765 95.3122C224.82 94.8066 224.915 94.3141 225.053 93.8337L226.221 89.769C226.275 89.5728 226.302 89.3837 226.302 89.2019C226.302 88.966 226.241 88.8239 226.118 88.7757C225.995 88.7288 225.816 88.7721 225.585 88.9058L225.174 89.1417C224.723 89.403 224.409 89.8485 224.23 90.4794L223.082 94.7801C222.972 95.1714 222.883 95.6506 222.816 96.2189L222.119 102.528C222.091 102.871 222.078 103.108 222.078 103.235C222.078 103.327 222.091 103.548 222.119 103.896L222.816 109.371C222.883 109.861 222.972 110.237 223.082 110.503L224.23 113.476C224.409 113.974 224.723 114.093 225.174 113.832L225.585 113.596C225.816 113.463 225.994 113.282 226.118 113.057C226.241 112.83 226.302 112.599 226.302 112.362C226.302 112.18 226.275 112.023 226.221 111.89L225.053 109.174ZM219.208 97.2097L218.777 97.4578C218.231 97.7744 217.957 98.315 217.957 99.0796V100.31C217.957 101.004 218.231 101.191 218.777 100.875L219.208 100.627C219.755 100.311 220.028 99.8068 220.028 99.1145V97.884C220.028 97.1182 219.755 96.8943 219.208 97.2097ZM201.429 105.423L201.204 105.553C200.657 105.869 200.384 106.401 200.384 107.149V116.774C200.384 117.066 200.347 117.309 200.271 117.503C200.195 117.698 200.096 117.831 199.973 117.902C199.877 117.957 199.778 117.957 199.676 117.902C199.574 117.846 199.488 117.738 199.42 117.575L196.117 109.338C195.94 108.877 195.624 108.774 195.174 109.034L194.765 109.271C194.218 109.587 193.944 110.119 193.944 110.866V128.338C193.944 129.066 194.217 129.273 194.765 128.958L194.99 128.827C195.537 128.511 195.81 127.99 195.81 127.259V117.17C195.81 116.879 195.851 116.624 195.933 116.408C196.015 116.191 196.117 116.048 196.241 115.975C196.46 115.849 196.637 115.97 196.774 116.341L200.261 124.964C200.438 125.409 200.754 125.5 201.205 125.24L201.43 125.11C201.977 124.795 202.25 124.272 202.25 123.542V106.071C202.249 105.324 201.976 105.107 201.429 105.423ZM211.354 100.322C211.08 100.097 210.746 100.099 210.349 100.328L205.12 103.348C204.574 103.663 204.301 104.185 204.301 104.915V122.36C204.301 123.089 204.574 123.296 205.12 122.98L210.349 119.961C210.746 119.732 211.08 119.356 211.354 118.834L212.011 117.58C212.284 117.04 212.421 116.505 212.421 115.975V101.921C212.421 101.394 212.284 101.025 212.011 100.818L211.354 100.322ZM210.554 116.261C210.554 116.989 210.281 117.512 209.734 117.827L206.987 119.413C206.439 119.729 206.167 119.522 206.167 118.793V106.325C206.167 105.597 206.44 105.074 206.987 104.758L209.734 103.172C210.281 102.857 210.554 103.062 210.554 103.793V116.261Z" fill="white"/>
<path d="M405.463 455.862C399.641 453.375 395.455 452.1 390.356 451.347C387.683 450.953 384.4 450.708 380.761 451.43C378.283 451.921 376.045 452.793 374.234 453.693C367.163 457.205 366.142 461.122 365.909 464.435C365.668 467.835 367.505 472.168 373.359 476.271C377.442 479.133 437.665 521.344 473.749 546.635C492.85 536.353 509.828 524.343 524.356 510.952C480.68 490.65 409.483 457.579 405.463 455.862Z" fill="#263238"/>
<path d="M437.599 307.805C443.76 309.013 446.166 309.427 449.118 314.531C452.07 319.634 457.076 338.618 458.446 342.548C459.815 346.477 460.229 347.914 459.663 352.302C459.073 356.875 456.376 365.008 455.246 369.462C454.722 371.523 454.37 373.527 453.989 375.637C453.59 377.837 452.637 379.848 451.941 381.974C451.619 382.955 450.929 383.874 450.147 384.544C449.633 384.986 448.939 385.032 448.451 385.447C447.946 385.877 447.843 386.578 447.167 386.916C446.414 387.293 445.55 387.056 444.891 387.444C444.203 387.849 443.622 388.438 442.858 388.772C442.169 389.071 441.66 389.191 441.136 389.767C440.706 390.24 440.29 391.294 439.514 391.217C438.645 391.13 438.505 390.289 438.459 389.561C438.38 388.279 439.076 386.659 439.842 385.647C440.729 384.475 441.331 383.11 442.352 382.042C443.277 381.077 443.815 379.649 444.206 378.365C444.481 377.468 444.396 376.317 443.237 376.842C441.87 377.461 440.424 378.764 438.787 378.482C437.654 378.287 437.591 377.395 438.252 376.649C439.36 375.399 440.309 374.139 441.23 372.732C442.146 371.33 442.903 369.845 443.856 368.473C444.351 367.761 444.944 367.083 445.535 366.436C447.188 364.628 447.125 362.161 447.312 359.868C447.576 356.668 447.804 348.483 447.804 348.483L440.343 330.096L437.599 307.805Z" fill="#FFBDA7"/>
<path d="M447.309 359.868C447.383 356.066 447.541 352.275 447.678 348.481C445.224 342.633 442.693 336.192 440.34 330.097C442.942 336.188 445.477 342.309 447.926 348.464C447.733 352.268 447.564 356.073 447.309 359.868Z" fill="white"/>
<path d="M395.974 450.581C398.092 449.837 399.663 449.763 399.642 450.812C399.62 451.862 398.28 454.526 398.28 454.526L396.597 456.841L395.791 459.135C395.791 459.135 394.805 460.363 394.744 460.452C394.684 460.54 394.355 456.187 394.355 456.187C394.355 456.187 393.16 451.124 395.974 450.581Z" fill="#263238"/>
<path d="M418.73 361.182C418.73 361.182 413.95 366.911 411.06 377.626C407.551 390.634 406.193 400.639 405.096 407.9C404.406 412.46 403.3 418.227 401.661 427.226C400.408 434.112 396.429 455.237 396.429 455.237C396.429 455.237 398.715 459.033 401.481 460.189C405.456 461.851 409.292 461.096 409.791 457.546C409.791 457.546 412.419 453.358 416.401 442.543C418.904 435.743 420.286 430.829 420.982 427.276C421.502 424.6 421.377 419.84 421.325 417.438L437.32 389.634C439.072 386.589 441.221 383.801 443.628 381.241C444.922 379.864 446.312 378.028 447.088 375.904C449.737 368.656 445.883 358.958 445.883 358.958L418.73 361.182Z" fill="#263238"/>
<path d="M405.097 407.9C402.521 423.735 399.575 439.507 396.428 455.238C399.201 439.436 402.158 423.672 405.097 407.9Z" fill="white"/>
<path d="M398.866 467.405L398.002 467.239C398.066 466.908 404.472 433.943 408.956 420.104C413.44 406.271 425.172 378.753 425.29 378.476L426.099 378.822C425.981 379.097 414.265 406.579 409.793 420.375C405.324 434.164 398.928 467.075 398.866 467.405Z" fill="black"/>
<path d="M439.778 370.456H413.512C412.645 372.519 411.792 374.911 411.06 377.626C407.922 389.259 406.505 398.484 405.455 405.499C406.094 409.798 406.817 414.207 407.486 417.25C409.25 425.261 410.353 430.921 411.75 434.229C413.144 437.529 416.497 442.214 416.511 442.233C418.94 435.599 420.296 430.773 420.981 427.277C421.501 424.601 421.374 419.841 421.324 417.439L436.943 390.287L438.063 386.014C442.033 379.545 441.592 374.694 439.778 370.456Z" fill="black"/>
<path d="M374.493 461.268C374.023 461.05 373.451 462.895 373.403 463.557C373.355 464.219 374.619 466.914 377.891 468.892C381.162 470.87 386.822 471.988 388.944 472.655C391.064 473.324 392.756 475.012 395.547 476.418C398.027 477.668 401.773 478.259 403.408 477.528C404.209 477.17 404.414 476.343 404.601 475.771C405.045 474.413 405.015 474.097 404.85 474.051L374.493 461.268Z" fill="#37474F"/>
<path d="M405.978 471.045C405.758 472.459 405.298 473.735 404.618 475.004C403.822 475.85 402.278 475.92 401.238 475.859C398.495 475.703 396.662 474.884 394.122 473.372C392.6 472.465 390.939 471.483 388.937 470.886C386.736 470.229 383.632 469.531 381.555 468.541C379.782 467.697 378.048 466.843 376.613 465.507C375.4 464.38 374.29 463.092 374.408 461.517C375.247 458.864 377.074 458.108 378.862 457.82C380.751 457.515 382.814 458.21 384.677 458.697C386.985 459.301 387.78 459.739 390.253 459.93C391.553 460.032 393.083 461.108 394.097 459.987C395.294 458.663 395.772 455.53 396.577 453.978C396.709 453.724 396.882 453.453 397.16 453.388C397.561 453.294 397.901 453.671 398.152 453.998C399.344 455.549 400.805 456.557 402.553 457.419C407.21 459.717 409.361 458.507 409.361 458.507L409.791 457.546C409.791 457.546 410.718 458.064 409.544 460.228C408.502 462.149 408.044 463.07 407.041 465.801C406.127 468.289 406.196 469.647 405.978 471.045Z" fill="#455A64"/>
<path d="M374.407 461.518C375.861 456.128 381.985 457.573 385.935 458.929C387.346 459.392 388.768 459.79 390.253 459.932C388.763 459.898 387.292 459.572 385.87 459.15C381.969 457.952 376.103 456.403 374.407 461.518Z" fill="white"/>
<path d="M385.542 458.935C383.554 459.124 383.013 462.336 383.013 462.336C383.013 462.336 385.986 463.97 388.737 464.195C392.241 464.483 394.345 462.76 395.18 460.082C396.014 457.404 395.243 453.642 395.098 452.431C394.986 451.507 395.347 450.753 396.273 450.477C394.405 450.971 393.972 451.931 394.041 453.367C394.109 454.804 394.067 457.668 393.431 458.616C392.796 459.564 389.777 459.992 385.542 458.935Z" fill="#455A64"/>
<path d="M435.321 361.182C436.57 362.461 439.677 366.747 440.185 373.345C440.399 376.138 439.605 381.404 436.342 385.366C435.344 399.999 432.451 428.183 432.451 428.183C436.318 432.165 437.318 434.733 439.558 441.87C440.917 446.204 446.021 460.134 447.292 464.012C440.517 464.84 436.832 471.571 436.832 471.571C436.832 471.571 424.922 453.969 419.183 443.615C414.94 435.96 412.968 433.168 411.708 428.637C410.138 422.99 409.716 420.073 408.321 410.551C406.927 401.03 405.588 388.964 404.907 379.591C404.224 370.218 403.679 360.283 403.679 360.283L435.321 361.182Z" fill="#263238"/>
<path d="M436.832 471.572C429.886 461.339 423.08 450.982 417.103 440.144C415.295 436.91 413.283 433.734 412.06 430.21C410.911 426.669 410.118 423.025 409.505 419.359C406.277 399.809 404.64 380.058 403.679 360.284L404.694 375.095C405.606 389.911 407.448 404.661 409.801 419.311C410.661 424.148 411.548 429.098 413.737 433.53C420.631 446.674 428.617 459.215 436.832 471.572Z" fill="white"/>
<path d="M419.992 432.791C416.488 423.851 412.291 375.228 412.499 358.421L411.62 358.41C411.55 364.027 411.973 373.191 412.699 383.248C409.837 381.806 408.001 379.152 408.001 365.838H407.122C407.122 379.224 408.869 382.46 412.772 384.255C414.24 404.168 416.858 427.203 419.173 433.111C422.601 441.858 440.502 471.392 440.682 471.69L441.435 471.234C441.254 470.937 423.393 441.468 419.992 432.791Z" fill="black"/>
<path d="M435.834 470.072C434.76 471.592 433.551 472.671 436.598 474.685C438.948 476.239 439.092 477.496 439.824 479.15C440.556 480.804 440.405 484.151 440.405 484.151C440.405 484.151 444.44 478.043 443.26 474.114C442.081 470.183 435.834 470.072 435.834 470.072Z" fill="#455A64"/>
<path d="M448.819 466.585C449.573 467.683 451.325 468.623 452.778 469.524C453.801 470.157 454.855 470.78 455.159 471.946C455.193 472.076 454.557 472.805 454.574 472.937C454.647 473.504 454.58 474.087 454.513 474.658C454.278 476.642 453.197 478.104 452.962 480.088C452.867 480.898 452.755 481.643 452.534 482.419C452.284 483.29 452.364 484.342 452.306 485.243C452.242 486.232 452.178 487.22 452.124 488.21C452.103 488.598 451.994 489.092 452.077 489.478C452.166 489.892 445.444 493.28 442.734 494.579C442.578 494.657 442.421 494.715 442.245 494.784C439.786 495.609 437.301 494.3 437.301 494.3C431.902 492.341 432.236 490.384 432.236 490.384C432.236 490.384 432.068 488.128 434.806 486.605C435.15 486.414 435.495 486.25 435.835 486.133C435.855 486.125 435.875 486.116 435.885 486.108C438.171 485.276 440.082 485.895 440.082 485.895C440.082 485.895 440.379 485.296 440.451 483.408C440.521 481.618 440.615 481.397 440.513 479.606C440.448 478.474 439.547 476.536 438.886 475.621C437.741 474.035 436.499 472.035 435.716 470.902C434.843 469.92 434.749 467.122 439.25 463.905C443.555 460.827 446.715 461.468 447.326 462.754C447.323 462.753 448.051 465.465 448.819 466.585Z" fill="#455A64"/>
<path d="M432.235 490.386C432.187 486.665 436.978 484.807 440.081 485.896C436.904 485.312 432.693 486.781 432.235 490.386Z" fill="white"/>
<path opacity="0.1" d="M437.225 487.855C437.606 486.943 437.93 486.516 439.131 485.72C439.714 485.784 440.082 485.895 440.082 485.895C439.539 486.429 437.591 487.185 437.225 487.855Z" fill="black"/>
<path d="M455.812 473.1C457.014 473.607 456.018 475.555 454.568 478.456C453.126 481.342 452.844 483.059 453.129 485.677C453.416 488.295 452.799 489.577 451.666 490.487C450.533 491.397 442.134 495.082 442.134 495.082C442.134 495.082 444.983 492.021 445.444 486.262C445.906 480.503 446.454 476.804 449.32 474.294C452.188 471.783 455.812 473.1 455.812 473.1Z" fill="black"/>
<path d="M432.233 490.383C432.37 491.504 435.583 493.792 439.376 493.752C443.288 493.711 443.496 492.898 444.086 488.45C444.676 484.002 445.083 477.835 447.006 475.19C448.929 472.545 451.462 470.981 455.16 471.945C455.583 472.151 456.732 473.295 456.299 474.365C456.299 474.365 456.31 473.52 454.792 473.081C453.49 472.704 451.936 472.742 449.765 474.616C447.232 476.802 446.665 481.932 446.375 486.341C446.086 490.75 444.707 494.981 441.06 495.373C437.413 495.763 434.592 494.687 432.268 492.648C431.886 491.461 432.233 490.383 432.233 490.383Z" fill="#37474F"/>
<path d="M410.494 280.155C409.398 278.887 409.397 276.874 410.009 275.314C410.621 273.753 411.896 272.103 415.622 270.175C420.047 267.885 432.214 266.257 438.233 274.215C439.101 275.362 427.127 297.864 427.719 302.531C424.615 299.267 414.365 287.787 414.365 287.787C411.937 286.754 410.469 285.877 409.956 283.585C409.808 282.934 409.839 281.265 410.494 280.155Z" fill="#263238"/>
<path d="M414.364 287.789C410.774 286.843 408.459 283.679 410.494 280.155C408.95 283.824 411.01 286.391 414.364 287.789Z" fill="white"/>
<path d="M410.494 280.155C408.972 278.491 409.342 275.82 410.494 274.041C411.745 272.208 413.687 271.066 415.621 270.175C414.693 270.718 413.789 271.297 412.942 271.941C410.425 273.678 408.549 277.357 410.494 280.155Z" fill="white"/>
<path d="M412.318 286.521C412.318 286.521 409.041 291.88 409.403 292.316C409.765 292.753 411.831 293.922 411.831 293.922L412.318 286.521Z" fill="#F0997A"/>
<path d="M412.318 286.521C411.504 288.24 410.522 289.864 409.704 291.573C409.606 291.845 409.377 292.176 409.534 292.371C409.716 292.607 409.985 292.797 410.251 292.965C409.922 292.785 409.386 292.649 409.308 292.211C409.815 290.125 411.135 288.289 412.318 286.521Z" fill="white"/>
<path d="M416.392 276.755C414.193 277.794 412.286 279.482 411.602 284.31C411.423 285.572 412.408 287.297 411.96 288.976C410.045 296.164 412.318 302.156 413.716 303.479C414.66 304.371 419.596 304.769 422.186 304.047C425.426 303.144 432.466 299.966 435.824 294.901C439.773 288.941 440.696 280.928 436.298 277.711C430.11 273.183 418.74 275.645 416.392 276.755Z" fill="#FFBDA7"/>
<path d="M411.602 284.31C411.557 285.955 412.558 287.557 412.005 289.225C410.984 293.888 410.909 299.419 413.717 303.479C410.632 299.55 410.637 293.833 411.812 289.175C412.369 287.587 411.451 285.964 411.602 284.31Z" fill="white"/>
<path d="M433.23 298.297L434.512 307.175C436.493 307.6 436.682 309.944 435.697 311.72L436.156 314.216L422.616 316.703L421.099 304.288L433.23 298.297Z" fill="#FFBDA7"/>
<path d="M413.979 303.661C415.127 304.298 417.659 304.768 421.098 304.289L420.895 302.533C420.895 302.533 419.437 303.109 417.539 303.495C415.652 303.878 413.999 303.663 413.979 303.661Z" fill="#F0997A"/>
<path d="M413.138 279.332C413.018 282.462 414.981 283.448 416.379 284.065C415.878 284.97 415.606 286.754 415.804 287.754C416.117 289.34 416.72 290.64 418.282 291.165C419.238 291.486 419.519 291.065 419.86 290.311C420.345 289.239 420.953 287.595 423.254 287.911C425.893 288.274 426.588 292.247 425.05 294.849C424.373 295.996 423.251 296.782 422.077 296.85C421.026 296.91 420.281 296.002 420.281 296.002C420.281 296.002 420.456 299.472 424.914 301.525C424.914 301.525 429.414 304.057 434.028 302.695C435.752 300.641 437.79 298.511 439.896 295.47C444.764 288.44 445.733 275.568 437.441 273.26C437.046 273.15 429.538 272.1 425.876 272.895C414.644 275.331 413.159 278.79 413.138 279.332Z" fill="#263238"/>
<path d="M433.502 272.386C432.528 273.111 431.777 274.177 431.584 275.376C431.392 276.576 431.817 277.892 432.775 278.637C435.205 280.526 438.942 278.332 439.385 275.541C439.909 272.239 435.93 270.581 433.502 272.386Z" fill="#CB54E9"/>
<path d="M435.46 273.434C432.992 274.945 431.455 278.518 432.772 281.094C433.131 281.797 433.636 282.425 433.934 283.156C434.89 285.505 433.499 288.088 433.2 290.606C433.008 292.23 433.334 295.027 434.202 296.44C435.017 297.767 436.827 298.108 437.549 299.509C438.045 300.474 437.703 301.649 437.897 302.716C438.315 305.024 441.036 306.13 443.381 306.181C445.37 306.224 447.518 305.72 448.802 304.199C449.448 303.432 449.835 302.457 450.566 301.769C451.96 300.458 454.219 300.528 455.721 299.342C456.913 298.402 457.424 296.793 457.376 295.276C457.327 293.759 456.793 292.302 456.22 290.897C455.219 288.448 456.021 286.94 456.527 284.497C457.07 281.877 455.503 278.98 453.013 278C451.309 277.328 449.235 277.443 447.868 276.223C447.122 275.558 446.715 274.595 446.041 273.858C443.45 271.034 438.36 271.659 435.46 273.434Z" fill="#263238"/>
<path d="M445.16 314.434C443.947 310.481 439.931 308.396 438.707 308.041C437.484 307.686 434.513 307.177 434.513 307.177C435.198 308.745 434.038 309.776 432.01 310.248C429.391 310.857 425.413 310.927 422.704 309.126L421.594 308.439C421.594 308.439 414.779 310.178 412.852 311.073C412.263 311.346 409.005 312.445 403.872 323.958C401.677 328.881 402.335 333.885 406.361 337.433C406.588 340.555 404.574 347.573 404.574 347.573C402.898 357.948 403.884 365.325 403.884 365.325C403.884 365.325 406.311 371.701 425.388 371.634C440.163 371.582 447.583 364.427 447.583 364.427C447.408 360.791 441.727 348.133 442.289 343.88C443.172 337.643 448.861 326.503 445.16 314.434Z" fill="#CB54E9"/>
<path d="M412.852 311.071C416.736 314.23 417.039 318.577 416.432 324.442C415.826 330.307 409.96 348.624 408.762 352.611C407.564 356.596 405.83 357.99 402.795 361.211C399.633 364.566 392.675 369.568 389.145 372.509C387.511 373.87 386.051 375.286 384.502 376.77C382.889 378.317 380.936 379.385 379.124 380.699C378.287 381.304 377.189 381.643 376.162 381.727C375.487 381.782 374.899 381.413 374.259 381.463C373.597 381.515 373.103 382.022 372.356 381.898C371.526 381.761 370.965 381.062 370.205 380.989C369.409 380.913 368.594 381.049 367.779 380.87C367.046 380.708 366.563 380.506 365.801 380.665C365.176 380.795 364.22 381.404 363.637 380.887C362.984 380.306 363.365 379.543 363.755 378.928C364.444 377.843 365.958 376.94 367.172 376.57C368.578 376.142 369.867 375.39 371.32 375.125C372.636 374.886 373.908 374.047 374.98 373.238C375.729 372.672 376.336 371.692 375.089 371.435C373.621 371.134 371.685 371.34 370.524 370.151C369.721 369.328 370.194 368.568 371.168 368.352C372.798 367.989 374.306 367.528 375.878 366.929C377.442 366.333 378.928 365.574 380.504 365.023C381.324 364.736 382.202 364.535 383.059 364.359C385.458 363.866 386.855 361.831 388.353 360.085C390.444 357.649 394.042 353.071 396.493 349.772L400.187 331.891C402.517 322.136 403.375 314.001 412.852 311.071Z" fill="#FFBDA7"/>
<path d="M416.437 324.438C416.112 327.508 414.354 334.01 412.572 340.066C412.452 340.488 412.319 340.897 412.199 341.306C410.718 346.327 409.285 350.854 408.756 352.612C407.672 356.236 406.143 357.717 403.602 360.366C403.338 360.643 403.073 360.907 402.796 361.208C399.629 364.568 392.67 369.564 389.142 372.514C387.517 373.875 386.048 375.283 384.507 376.764C382.894 378.317 380.931 379.389 379.125 380.701C378.282 381.303 377.187 381.64 376.163 381.725C375.489 381.785 374.899 381.412 374.261 381.46C373.599 381.508 373.105 382.014 372.359 381.893C371.528 381.761 370.962 381.062 370.203 380.99C369.409 380.906 368.59 381.05 367.783 380.87C367.049 380.701 366.567 380.509 365.797 380.665C365.604 380.713 365.375 380.797 365.135 380.882C365.038 380.918 364.93 380.954 364.834 380.978C364.701 381.026 364.557 381.062 364.412 381.074C364.123 381.111 363.858 381.074 363.642 380.882C362.979 380.304 363.365 379.545 363.75 378.931C364.448 377.848 365.953 376.933 367.169 376.571C368.578 376.138 369.866 375.392 371.323 375.127C372.636 374.886 373.912 374.043 374.983 373.236C375.73 372.671 376.332 371.695 375.092 371.43C373.623 371.129 371.684 371.334 370.529 370.154C369.722 369.323 370.191 368.565 371.167 368.348C372.804 367.987 374.309 367.529 375.874 366.927C377.439 366.325 378.932 365.567 380.498 365.025C381.328 364.736 382.207 364.531 383.062 364.363C385.458 363.869 386.855 361.822 388.348 360.089C390.443 357.645 394.043 353.069 396.499 349.77L400.183 331.891C402.519 322.139 403.374 314 412.849 311.074C413.909 311.941 414.715 312.892 415.293 313.939C416.834 316.721 416.87 320.176 416.437 324.438Z" fill="#FFBDA7"/>
<path d="M363.638 380.885C363.075 380.469 363.229 379.679 363.537 379.148C364.441 377.408 366.398 376.659 368.135 376.067C369.274 375.613 370.468 375.097 371.698 374.918C372.882 374.609 373.956 373.936 374.981 373.236C374.021 374.024 372.987 374.775 371.758 375.142C369.658 375.715 366.683 376.701 364.9 377.885C364.098 378.528 362.712 379.858 363.638 380.885Z" fill="white"/>
<path d="M370.525 370.149C369.024 368.435 371.917 368.217 373.005 367.853C375.864 367.125 378.39 365.543 381.216 364.751C382.627 364.341 384.127 364.175 385.262 363.228C387.233 361.673 389.337 358.55 390.959 356.594L396.382 349.687C397.604 343.657 399.499 334.297 400.935 328.171C402.458 320.897 404.804 313.227 412.851 311.07C404.924 313.315 402.618 320.99 401.142 328.218C399.705 334.429 397.976 343.531 396.605 349.852L391.14 356.74C389.474 358.72 387.408 361.782 385.375 363.377C384.196 364.348 382.641 364.516 381.264 364.908C378.455 365.69 375.882 367.231 373.022 367.915C371.925 368.27 369.058 368.426 370.525 370.149Z" fill="white"/>
<path opacity="0.3" d="M440.074 389.39C440.092 389.853 440.18 390.33 440.441 390.709C440.7 390.395 440.914 390.007 441.131 389.769C441.655 389.192 442.164 389.073 442.853 388.773C443.617 388.439 444.198 387.851 444.886 387.445C445.545 387.057 446.409 387.294 447.162 386.917C447.838 386.579 447.941 385.88 448.446 385.449C448.935 385.033 449.628 384.987 450.143 384.546C450.924 383.875 451.615 382.956 451.937 381.975C452.633 379.849 453.588 377.838 453.985 375.638C454.367 373.528 454.719 371.524 455.242 369.463C456.374 365.009 459.071 356.876 459.661 352.304C460.226 347.915 459.813 346.479 458.443 342.549C457.073 338.619 452.068 319.636 449.116 314.532C446.317 309.69 444 309.067 438.511 307.986C438.409 307.962 438.3 307.93 438.179 307.897C438.01 307.86 437.818 307.812 437.625 307.776C437.48 307.74 437.336 307.716 437.191 307.68C437.011 307.644 436.818 307.608 436.638 307.571C436.529 307.547 436.421 307.535 436.313 307.511C436.024 307.451 435.759 307.403 435.518 307.355C435.277 307.319 435.072 307.282 434.916 307.246C434.856 307.234 434.808 307.222 434.759 307.222C434.603 307.186 434.507 307.174 434.507 307.174L433.868 302.731C433.917 302.719 433.977 302.707 434.025 302.695C435 301.539 436.072 300.347 437.191 298.999C437.324 299.155 437.444 299.324 437.541 299.517C438.046 300.48 437.697 301.648 437.89 302.719C438.311 305.031 441.032 306.127 443.38 306.187C445.367 306.223 447.51 305.717 448.798 304.2C449.448 303.43 449.833 302.454 450.556 301.768C451.953 300.456 454.216 300.528 455.721 299.348C456.913 298.409 457.419 296.796 457.371 295.279C457.322 293.762 456.793 292.305 456.215 290.896C455.215 288.452 456.01 286.935 456.516 284.503C457.057 281.878 455.492 278.976 453.012 278.001C451.302 277.327 449.232 277.447 447.859 276.219C447.112 275.557 446.715 274.594 446.041 273.859C444.114 271.752 440.803 271.572 438.034 272.342C437.372 271.873 436.541 271.632 435.699 271.656C431.942 268.742 427.042 268.056 422.84 268.381C421.263 269.007 419.854 270.043 418.638 271.259C414.857 275.003 412.57 280.506 413.605 285.731C413.798 286.706 414.099 287.645 414.255 288.62C414.653 291.113 414.099 293.653 414.111 296.182C414.123 298.698 414.917 301.503 417.109 302.743C418.77 303.67 420.805 303.49 422.695 303.731C425.802 304.128 425.44 306.042 425.561 308.679C425.585 309.076 425.597 309.486 425.465 309.847C425.416 309.991 425.344 310.112 425.248 310.232C424.441 311.232 422.154 311.629 421.142 311.966C419.264 312.58 417.073 312.977 415.291 313.941C414.436 314.398 413.677 314.988 413.099 315.807C410.8 319.034 409.825 322.874 408.849 326.655C407.946 330.146 406.995 333.638 405.996 337.106C405.093 340.248 404.154 343.378 403.178 346.497C402.3 349.302 401.372 352.119 399.783 354.576C397.917 357.429 395.244 359.644 392.836 362.077C387.382 367.591 382.819 374.646 375.523 377.295C372.717 378.306 369.707 378.583 366.83 379.354C365.83 379.619 364.699 380.149 364.41 381.076C364.554 381.064 364.699 381.027 364.831 380.979C364.939 380.955 365.036 380.919 365.132 380.883C365.373 380.799 365.602 380.714 365.794 380.666C366.565 380.51 367.046 380.702 367.781 380.871C368.588 381.052 369.406 380.907 370.201 380.991C370.959 381.064 371.525 381.762 372.356 381.894C373.103 382.015 373.596 381.509 374.258 381.461C374.897 381.413 375.486 381.786 376.161 381.726C377.184 381.642 378.28 381.304 379.123 380.702C380.929 379.39 382.891 378.318 384.504 376.765C386.046 375.284 387.514 373.876 389.14 372.515C392.668 369.565 399.627 364.569 402.793 361.21C403.07 360.909 403.335 360.644 403.6 360.367L403.612 360.355C406.14 357.718 407.669 356.237 408.753 352.613C409.283 350.855 410.716 346.328 412.196 341.308C412.365 340.742 412.497 340.308 412.57 340.067C413.184 340.621 413.328 341.609 413.388 342.475C413.834 348.327 415.231 354.251 416.182 360.078C416.856 364.232 417.542 368.385 417.855 372.575C418.096 375.609 418.132 378.644 418.18 381.678C418.277 388.914 418.373 396.138 418.469 403.362C418.493 404.59 418.505 405.818 418.529 407.046C418.578 410.79 418.746 413.535 419.228 417.244C419.625 420.218 420.263 423.167 421.166 426.033C421.383 426.731 421.612 427.43 421.865 428.128C424.357 435.051 428.27 441.324 432.038 447.609C435.963 454.183 439.13 461.298 442.26 468.305C442.826 469.57 443.392 470.846 443.609 472.206C443.994 474.542 443.356 476.914 443.175 479.274C442.995 481.574 443.26 483.897 443.199 486.209C443.127 488.509 442.682 490.917 441.273 492.747C440.346 493.963 439.022 494.83 437.553 495.263C438.636 495.456 439.792 495.504 441.056 495.371C441.779 495.299 442.405 495.07 442.947 494.721C445.09 493.77 450.749 491.218 451.664 490.483C452.795 489.58 453.409 488.292 453.132 485.679C452.843 483.054 453.12 481.345 454.565 478.455C455.48 476.625 456.203 475.18 456.323 474.229C456.624 473.206 455.565 472.146 455.155 471.942C454.854 470.774 453.795 470.16 452.771 469.521C451.326 468.618 449.569 467.679 448.822 466.584C448.052 465.464 447.317 462.755 447.317 462.755C447.197 462.49 446.956 462.261 446.631 462.069C444.777 456.735 440.743 445.646 439.551 441.878C437.312 434.738 436.313 432.161 432.448 428.188C432.448 428.188 434.579 407.383 435.819 392.249L437.312 389.636C437.468 389.359 437.625 389.094 437.793 388.829C439.455 386.096 441.43 383.568 443.621 381.244C443.839 381.013 444.058 380.752 444.276 380.495C443.946 381.04 443.629 381.59 443.269 382.12C441.755 384.351 439.969 386.695 440.074 389.39ZM447.44 364.557C447.524 364.472 447.584 364.424 447.584 364.424C447.56 363.858 447.392 363.064 447.139 362.113C446.862 361.089 446.477 359.873 446.055 358.561C445.923 358.151 445.778 357.73 445.634 357.309C445.14 355.84 444.611 354.275 444.129 352.758C443.972 352.288 443.828 351.818 443.696 351.361C443.527 350.855 443.382 350.35 443.25 349.868C443.154 349.519 443.057 349.182 442.973 348.845C442.949 348.736 442.913 348.616 442.889 348.507C442.829 348.279 442.78 348.062 442.732 347.857C442.636 347.46 442.552 347.087 442.492 346.726C442.467 346.593 442.443 346.461 442.419 346.328C442.407 346.232 442.383 346.148 442.383 346.051C442.347 345.871 442.323 345.69 442.311 345.522C442.299 345.401 442.287 345.281 442.275 345.16C442.251 344.932 442.251 344.715 442.251 344.51C442.251 344.281 442.263 344.077 442.287 343.884C442.504 342.331 443.021 340.465 443.623 338.358C444.017 336.97 444.443 335.471 444.843 333.887C445.984 336.009 447.093 338.147 448.2 340.287C449.088 342.006 449.982 343.735 450.568 345.578C451.896 349.754 451.577 354.259 451.063 358.61C450.476 363.572 449.486 368.5 447.788 373.153C448.254 370.196 447.943 367.096 447.44 364.557Z" fill="black"/>
</svg>
