<svg width="40" height="41" viewBox="0 0 40 41" fill="none" xmlns="http://www.w3.org/2000/svg">
<path d="M20 4.22827C16.0425 4.22844 12.2141 5.63679 9.19997 8.20135C6.1858 10.7659 4.18253 14.3193 3.54858 18.2257C2.91463 22.1322 3.69139 26.1367 5.73986 29.5229C7.78833 32.909 10.9748 35.4557 14.7292 36.7074C15.5626 36.8533 15.8751 36.3533 15.8751 35.9158C15.8751 35.5199 15.8542 34.2074 15.8542 32.8116C11.6667 33.5824 10.5834 31.7908 10.25 30.8533C9.88015 29.9415 9.29382 29.1335 8.54169 28.4991C7.95836 28.1866 7.12503 27.4158 8.52084 27.395C9.05382 27.4528 9.565 27.6383 10.0111 27.9356C10.4571 28.233 10.825 28.6335 11.0834 29.1033C11.3113 29.5128 11.6178 29.8732 11.9853 30.1641C12.3529 30.4549 12.7741 30.6704 13.2251 30.7981C13.676 30.9258 14.1477 30.9633 14.6132 30.9084C15.0786 30.8536 15.5286 30.7074 15.9375 30.4783C16.0096 29.631 16.3873 28.8388 17 28.2492C13.2917 27.8325 9.41669 26.3949 9.41669 20.02C9.39327 18.3636 10.0045 16.761 11.125 15.5408C10.6155 14.1012 10.6751 12.5213 11.2917 11.1242C11.2917 11.1242 12.6875 10.6866 15.875 12.8325C18.6022 12.0824 21.4812 12.0824 24.2084 12.8325C27.3958 10.6658 28.7917 11.1242 28.7917 11.1242C29.4084 12.5213 29.468 14.1012 28.9584 15.5408C30.0823 16.7589 30.694 18.3629 30.6667 20.02C30.6667 26.4158 26.7708 27.8325 23.0625 28.2492C23.4603 28.6523 23.7666 29.1363 23.9607 29.6683C24.1548 30.2004 24.2322 30.7679 24.1875 31.3325C24.1875 33.5617 24.1667 35.3533 24.1667 35.9158C24.1667 36.3533 24.4792 36.8742 25.3125 36.7075C29.0603 35.4456 32.2376 32.8929 34.2774 29.505C36.3171 26.1172 37.0865 22.1147 36.4482 18.212C35.8098 14.3093 33.8053 10.7606 30.7925 8.19912C27.7796 5.63769 23.9545 4.23033 20 4.22827Z" fill="white"/>
</svg>
