<svg width="40" height="41" viewBox="0 0 40 41" fill="none" xmlns="http://www.w3.org/2000/svg">
<path d="M19.9905 3.81714C16.6942 3.81714 13.4718 4.79462 10.731 6.62598C7.9902 8.45734 5.854 11.0603 4.59253 14.1057C3.33107 17.1512 3.00102 20.5023 3.64411 23.7353C4.28719 26.9683 5.87454 29.938 8.20541 32.2689C10.5363 34.5998 13.506 36.1871 16.739 36.8302C19.972 37.4733 23.3231 37.1433 26.3686 35.8818C29.414 34.6203 32.017 32.4841 33.8484 29.7433C35.6797 27.0025 36.6572 23.7802 36.6572 20.4838C36.6574 18.2951 36.2264 16.1277 35.3889 14.1055C34.5514 12.0834 33.3237 10.246 31.776 8.69829C30.2284 7.15061 28.391 5.92296 26.3688 5.08544C24.3466 4.24793 22.1793 3.81696 19.9905 3.81714ZM25.2897 29.0713C25.2273 29.2268 25.1324 29.3672 25.0113 29.4831C24.8902 29.599 24.7458 29.6876 24.5876 29.7431C24.4295 29.7986 24.2613 29.8196 24.0944 29.8048C23.9274 29.7899 23.7656 29.7396 23.6197 29.6571L19.0953 26.1415L16.1914 28.8205C16.124 28.8703 16.0452 28.9023 15.9622 28.9136C15.8792 28.925 15.7947 28.9153 15.7164 28.8854L16.2731 23.9046L16.2909 23.9187L16.3023 23.8204C16.3023 23.8204 24.4439 16.4079 24.7756 16.0921C25.1114 15.7771 25.0006 15.7087 25.0006 15.7087C25.0197 15.3245 24.3981 15.7087 24.3981 15.7087L13.6105 22.6488L9.11804 21.1188C9.11804 21.1188 8.42804 20.8713 8.36304 20.3271C8.29471 19.7871 9.14053 19.4938 9.14053 19.4938L27.0022 12.398C27.0022 12.398 28.4705 11.7438 28.4705 12.8271L25.2897 29.0713Z" fill="white"/>
</svg>
